<?xml version="1.0" encoding="UTF-8"?>
<svg xmlns="http://www.w3.org/2000/svg" xmlns:xlink="http://www.w3.org/1999/xlink" width="30px" height="32px" viewBox="0 0 30 32" version="1.1">
<g id="surface1">
<path style=" stroke:none;fill-rule:nonzero;fill:rgb(52.941179%,76.862746%,22.745098%);fill-opacity:1;" d="M 14.351562 0.117188 C 14.878906 0.105469 15.402344 0.101562 15.925781 0.09375 C 16.074219 0.09375 16.226562 0.0898438 16.378906 0.0859375 C 16.523438 0.0859375 16.664062 0.0859375 16.8125 0.0820312 C 16.945312 0.0820312 17.074219 0.078125 17.210938 0.078125 C 17.316406 0.0898438 17.421875 0.105469 17.53125 0.117188 C 17.824219 0.558594 17.796875 0.898438 17.785156 1.40625 C 17.785156 1.53125 17.785156 1.53125 17.785156 1.65625 C 17.78125 2.363281 17.710938 3.039062 17.648438 3.75 C 18.695312 3.75 19.742188 3.75 20.824219 3.75 C 20.824219 3.90625 20.824219 4.058594 20.824219 4.21875 C 21.019531 4.210938 21.019531 4.210938 21.21875 4.207031 C 21.648438 4.21875 21.648438 4.21875 21.882812 4.453125 C 21.90625 4.757812 21.90625 4.757812 21.898438 5.113281 C 21.894531 5.230469 21.894531 5.347656 21.890625 5.46875 C 21.886719 5.558594 21.886719 5.652344 21.882812 5.742188 C 22.230469 5.742188 22.582031 5.742188 22.941406 5.742188 C 22.941406 5.898438 22.941406 6.054688 22.941406 6.210938 C 23.050781 6.207031 23.160156 6.203125 23.273438 6.199219 C 23.648438 6.210938 23.648438 6.210938 24 6.445312 C 24.035156 6.804688 24.035156 6.804688 24.023438 7.222656 C 24.015625 7.433594 24.015625 7.433594 24.011719 7.644531 C 24.007812 7.753906 24.003906 7.859375 24 7.96875 C 24.386719 7.96875 24.777344 7.96875 25.175781 7.96875 C 25.175781 8.085938 25.175781 8.203125 25.175781 8.324219 C 25.285156 8.316406 25.394531 8.308594 25.507812 8.300781 C 25.882812 8.324219 25.882812 8.324219 26.082031 8.453125 C 26.304688 8.773438 26.269531 9.015625 26.257812 9.398438 C 26.253906 9.589844 26.253906 9.589844 26.246094 9.785156 C 26.242188 9.882812 26.238281 9.980469 26.234375 10.082031 C 26.351562 10.082031 26.46875 10.082031 26.589844 10.082031 C 26.589844 8.03125 26.589844 5.980469 26.589844 3.867188 C 26.082031 3.867188 25.578125 3.867188 25.058594 3.867188 C 25.058594 3.597656 25.058594 3.328125 25.058594 3.046875 C 24.824219 3.046875 24.59375 3.046875 24.351562 3.046875 C 24.351562 2.273438 24.351562 1.5 24.351562 0.703125 C 25.128906 0.703125 25.90625 0.703125 26.707031 0.703125 C 26.707031 0.972656 26.707031 1.246094 26.707031 1.523438 C 26.9375 1.523438 27.171875 1.523438 27.410156 1.523438 C 27.410156 1.949219 27.410156 2.375 27.410156 2.8125 C 27.917969 2.8125 28.421875 2.8125 28.941406 2.8125 C 28.941406 2.96875 28.941406 3.121094 28.941406 3.28125 C 29.054688 3.273438 29.164062 3.265625 29.28125 3.261719 C 29.402344 3.265625 29.523438 3.273438 29.648438 3.28125 C 29.929688 3.703125 29.914062 4.011719 29.914062 4.5 C 29.914062 4.628906 29.914062 4.628906 29.914062 4.765625 C 29.914062 5.054688 29.914062 5.34375 29.914062 5.632812 C 29.914062 5.835938 29.914062 6.035156 29.914062 6.238281 C 29.914062 6.660156 29.914062 7.082031 29.914062 7.503906 C 29.910156 8.046875 29.914062 8.585938 29.914062 9.128906 C 29.914062 9.542969 29.914062 9.960938 29.914062 10.375 C 29.914062 10.574219 29.914062 10.773438 29.914062 10.972656 C 29.914062 11.253906 29.914062 11.53125 29.914062 11.808594 C 29.914062 11.894531 29.914062 11.976562 29.914062 12.0625 C 29.910156 12.632812 29.910156 12.632812 29.648438 12.894531 C 29.34375 12.910156 29.054688 12.914062 28.75 12.910156 C 28.625 12.90625 28.625 12.90625 28.5 12.90625 C 28.292969 12.902344 28.085938 12.898438 27.882812 12.894531 C 27.882812 13.046875 27.882812 13.199219 27.886719 13.359375 C 27.894531 14.800781 27.902344 16.242188 27.90625 17.683594 C 27.910156 18.425781 27.914062 19.167969 27.917969 19.90625 C 27.921875 20.621094 27.925781 21.339844 27.925781 22.054688 C 27.929688 22.328125 27.929688 22.597656 27.933594 22.871094 C 27.933594 23.253906 27.9375 23.636719 27.9375 24.019531 C 27.9375 24.132812 27.9375 24.246094 27.941406 24.363281 C 27.9375 25.125 27.9375 25.125 27.664062 25.507812 C 27.335938 25.71875 27.125 25.71875 26.734375 25.699219 C 26.621094 25.695312 26.503906 25.691406 26.382812 25.6875 C 26.296875 25.679688 26.207031 25.675781 26.117188 25.671875 C 26.121094 25.804688 26.125 25.9375 26.125 26.074219 C 26.128906 26.246094 26.128906 26.417969 26.132812 26.59375 C 26.132812 26.679688 26.136719 26.769531 26.136719 26.859375 C 26.140625 27.085938 26.128906 27.316406 26.117188 27.546875 C 25.882812 27.78125 25.882812 27.78125 25.421875 27.804688 C 25.238281 27.800781 25.050781 27.796875 24.867188 27.792969 C 24.773438 27.792969 24.679688 27.792969 24.582031 27.792969 C 24.347656 27.789062 24.117188 27.785156 23.882812 27.78125 C 23.882812 27.972656 23.882812 28.167969 23.882812 28.367188 C 24.191406 28.367188 24.503906 28.367188 24.824219 28.367188 C 24.824219 28.558594 24.824219 28.753906 24.824219 28.953125 C 24.953125 28.949219 25.085938 28.941406 25.21875 28.9375 C 25.648438 28.953125 25.648438 28.953125 25.882812 29.1875 C 25.914062 29.421875 25.914062 29.421875 25.914062 29.710938 C 25.914062 29.8125 25.914062 29.917969 25.914062 30.023438 C 25.914062 30.132812 25.914062 30.238281 25.910156 30.351562 C 25.914062 30.460938 25.914062 30.566406 25.914062 30.679688 C 25.914062 30.78125 25.914062 30.886719 25.914062 30.992188 C 25.914062 31.085938 25.914062 31.183594 25.914062 31.28125 C 25.882812 31.53125 25.882812 31.53125 25.648438 31.882812 C 25.289062 31.917969 24.960938 31.929688 24.601562 31.925781 C 24.449219 31.925781 24.449219 31.925781 24.289062 31.925781 C 24.070312 31.925781 23.851562 31.925781 23.632812 31.921875 C 23.296875 31.917969 22.960938 31.917969 22.625 31.921875 C 22.410156 31.921875 22.199219 31.917969 21.984375 31.917969 C 21.832031 31.917969 21.832031 31.917969 21.679688 31.917969 C 20.96875 31.910156 20.96875 31.910156 20.707031 31.648438 C 20.675781 31.332031 20.695312 31.027344 20.707031 30.710938 C 20.628906 30.710938 20.550781 30.710938 20.46875 30.710938 C 20.46875 30.441406 20.46875 30.167969 20.46875 29.890625 C 16.78125 29.890625 13.09375 29.890625 9.292969 29.890625 C 9.292969 30.46875 9.292969 31.050781 9.292969 31.648438 C 8.980469 31.960938 8.746094 31.914062 8.320312 31.917969 C 8.21875 31.917969 8.117188 31.917969 8.015625 31.917969 C 7.910156 31.917969 7.808594 31.917969 7.699219 31.917969 C 7.480469 31.921875 7.261719 31.921875 7.042969 31.917969 C 6.707031 31.917969 6.371094 31.921875 6.035156 31.925781 C 5.824219 31.925781 5.609375 31.925781 5.398438 31.925781 C 5.296875 31.925781 5.195312 31.925781 5.089844 31.929688 C 4.808594 31.925781 4.808594 31.925781 4.351562 31.882812 C 4.066406 31.457031 4.097656 31.214844 4.117188 30.710938 C 4.039062 30.710938 3.960938 30.710938 3.882812 30.710938 C 3.882812 29.9375 3.882812 29.164062 3.882812 28.367188 C 4.582031 28.367188 5.28125 28.367188 6 28.367188 C 6 28.171875 6 27.980469 6 27.78125 C 5.894531 27.785156 5.789062 27.789062 5.679688 27.792969 C 5.539062 27.796875 5.398438 27.800781 5.257812 27.800781 C 5.121094 27.804688 4.980469 27.808594 4.839844 27.816406 C 4.46875 27.78125 4.46875 27.78125 4.246094 27.628906 C 4.039062 27.304688 4.097656 26.984375 4.117188 26.609375 C 4.039062 26.609375 3.960938 26.609375 3.882812 26.609375 C 3.882812 26.296875 3.882812 25.988281 3.882812 25.671875 C 3.808594 25.671875 3.738281 25.675781 3.664062 25.679688 C 3.566406 25.679688 3.472656 25.683594 3.375 25.683594 C 3.28125 25.6875 3.1875 25.691406 3.089844 25.691406 C 2.824219 25.671875 2.824219 25.671875 2.46875 25.4375 C 2.421875 25.117188 2.453125 24.820312 2.46875 24.5 C 2.394531 24.5 2.316406 24.5 2.234375 24.5 C 2.234375 20.667969 2.234375 16.839844 2.234375 12.894531 C 1.652344 12.894531 1.070312 12.894531 0.46875 12.894531 C 0.351562 12.777344 0.351562 12.777344 0.339844 12.558594 C 0.34375 12.320312 0.347656 12.078125 0.351562 11.839844 C 0.238281 11.839844 0.121094 11.839844 0 11.839844 C 0 8.859375 0 5.882812 0 2.8125 C 0.738281 2.8125 1.476562 2.8125 2.234375 2.8125 C 2.234375 2.117188 2.234375 1.421875 2.234375 0.703125 C 2.972656 0.703125 3.710938 0.703125 4.46875 0.703125 C 4.46875 0.972656 4.46875 1.246094 4.46875 1.523438 C 4.703125 1.523438 4.9375 1.523438 5.175781 1.523438 C 5.175781 2.296875 5.175781 3.070312 5.175781 3.867188 C 4.554688 3.867188 3.933594 3.867188 3.292969 3.867188 C 3.292969 5.917969 3.292969 7.96875 3.292969 10.082031 C 3.488281 10.082031 3.683594 10.082031 3.882812 10.082031 C 3.882812 9.382812 3.882812 8.6875 3.882812 7.96875 C 4.582031 7.96875 5.28125 7.96875 6 7.96875 C 6 7.234375 6 6.5 6 5.742188 C 6.738281 5.742188 7.476562 5.742188 8.234375 5.742188 C 8.234375 5.085938 8.234375 4.429688 8.234375 3.75 C 10.292969 3.75 12.351562 3.75 14.46875 3.75 C 14.414062 2.707031 14.414062 2.707031 14.351562 1.640625 C 14.347656 1.132812 14.34375 0.625 14.351562 0.117188 Z M 2.351562 3.046875 C 2.351562 3.125 2.351562 3.203125 2.351562 3.28125 C 2.507812 3.28125 2.664062 3.28125 2.824219 3.28125 C 2.824219 3.203125 2.824219 3.128906 2.824219 3.046875 C 2.667969 3.046875 2.511719 3.046875 2.351562 3.046875 Z M 2.351562 3.046875 "/>
<path style=" stroke:none;fill-rule:nonzero;fill:rgb(16.078432%,18.82353%,16.078432%);fill-opacity:1;" d="M 14.351562 0.117188 C 14.878906 0.105469 15.402344 0.101562 15.925781 0.09375 C 16.074219 0.09375 16.226562 0.0898438 16.378906 0.0859375 C 16.523438 0.0859375 16.664062 0.0859375 16.8125 0.0820312 C 16.945312 0.0820312 17.074219 0.078125 17.210938 0.078125 C 17.316406 0.0898438 17.421875 0.105469 17.53125 0.117188 C 17.824219 0.558594 17.796875 0.898438 17.785156 1.40625 C 17.785156 1.53125 17.785156 1.53125 17.785156 1.65625 C 17.78125 2.363281 17.710938 3.039062 17.648438 3.75 C 18.695312 3.75 19.742188 3.75 20.824219 3.75 C 20.824219 3.90625 20.824219 4.058594 20.824219 4.21875 C 21.019531 4.210938 21.019531 4.210938 21.21875 4.207031 C 21.648438 4.21875 21.648438 4.21875 21.882812 4.453125 C 21.90625 4.757812 21.90625 4.757812 21.898438 5.113281 C 21.894531 5.230469 21.894531 5.347656 21.890625 5.46875 C 21.886719 5.558594 21.886719 5.652344 21.882812 5.742188 C 22.230469 5.742188 22.582031 5.742188 22.941406 5.742188 C 22.941406 5.898438 22.941406 6.054688 22.941406 6.210938 C 23.050781 6.207031 23.160156 6.203125 23.273438 6.199219 C 23.648438 6.210938 23.648438 6.210938 24 6.445312 C 24.035156 6.804688 24.035156 6.804688 24.023438 7.222656 C 24.015625 7.433594 24.015625 7.433594 24.011719 7.644531 C 24.007812 7.753906 24.003906 7.859375 24 7.96875 C 24.386719 7.96875 24.777344 7.96875 25.175781 7.96875 C 25.175781 8.085938 25.175781 8.203125 25.175781 8.324219 C 25.285156 8.316406 25.394531 8.308594 25.507812 8.300781 C 25.882812 8.324219 25.882812 8.324219 26.082031 8.453125 C 26.304688 8.773438 26.269531 9.015625 26.257812 9.398438 C 26.253906 9.589844 26.253906 9.589844 26.246094 9.785156 C 26.242188 9.882812 26.238281 9.980469 26.234375 10.082031 C 26.351562 10.082031 26.46875 10.082031 26.589844 10.082031 C 26.589844 8.03125 26.589844 5.980469 26.589844 3.867188 C 26.082031 3.867188 25.578125 3.867188 25.058594 3.867188 C 25.058594 3.597656 25.058594 3.328125 25.058594 3.046875 C 24.824219 3.046875 24.59375 3.046875 24.351562 3.046875 C 24.351562 2.273438 24.351562 1.5 24.351562 0.703125 C 25.128906 0.703125 25.90625 0.703125 26.707031 0.703125 C 26.707031 0.972656 26.707031 1.246094 26.707031 1.523438 C 26.9375 1.523438 27.171875 1.523438 27.410156 1.523438 C 27.410156 1.949219 27.410156 2.375 27.410156 2.8125 C 27.917969 2.8125 28.421875 2.8125 28.941406 2.8125 C 28.941406 2.96875 28.941406 3.121094 28.941406 3.28125 C 29.054688 3.273438 29.164062 3.265625 29.28125 3.261719 C 29.402344 3.265625 29.523438 3.273438 29.648438 3.28125 C 29.929688 3.703125 29.914062 4.011719 29.914062 4.5 C 29.914062 4.628906 29.914062 4.628906 29.914062 4.765625 C 29.914062 5.054688 29.914062 5.34375 29.914062 5.632812 C 29.914062 5.835938 29.914062 6.035156 29.914062 6.238281 C 29.914062 6.660156 29.914062 7.082031 29.914062 7.503906 C 29.910156 8.046875 29.914062 8.585938 29.914062 9.128906 C 29.914062 9.542969 29.914062 9.960938 29.914062 10.375 C 29.914062 10.574219 29.914062 10.773438 29.914062 10.972656 C 29.914062 11.253906 29.914062 11.53125 29.914062 11.808594 C 29.914062 11.894531 29.914062 11.976562 29.914062 12.0625 C 29.910156 12.632812 29.910156 12.632812 29.648438 12.894531 C 29.34375 12.910156 29.054688 12.914062 28.75 12.910156 C 28.625 12.90625 28.625 12.90625 28.5 12.90625 C 28.292969 12.902344 28.085938 12.898438 27.882812 12.894531 C 27.882812 13.046875 27.882812 13.199219 27.886719 13.359375 C 27.894531 14.800781 27.902344 16.242188 27.90625 17.683594 C 27.910156 18.425781 27.914062 19.167969 27.917969 19.90625 C 27.921875 20.621094 27.925781 21.339844 27.925781 22.054688 C 27.929688 22.328125 27.929688 22.597656 27.933594 22.871094 C 27.933594 23.253906 27.9375 23.636719 27.9375 24.019531 C 27.9375 24.132812 27.9375 24.246094 27.941406 24.363281 C 27.9375 25.125 27.9375 25.125 27.664062 25.507812 C 27.335938 25.71875 27.125 25.71875 26.734375 25.699219 C 26.621094 25.695312 26.503906 25.691406 26.382812 25.6875 C 26.296875 25.679688 26.207031 25.675781 26.117188 25.671875 C 26.121094 25.804688 26.125 25.9375 26.125 26.074219 C 26.128906 26.246094 26.128906 26.417969 26.132812 26.59375 C 26.132812 26.679688 26.136719 26.769531 26.136719 26.859375 C 26.140625 27.085938 26.128906 27.316406 26.117188 27.546875 C 25.882812 27.78125 25.882812 27.78125 25.421875 27.804688 C 25.238281 27.800781 25.050781 27.796875 24.867188 27.792969 C 24.773438 27.792969 24.679688 27.792969 24.582031 27.792969 C 24.347656 27.789062 24.117188 27.785156 23.882812 27.78125 C 23.882812 27.972656 23.882812 28.167969 23.882812 28.367188 C 24.191406 28.367188 24.503906 28.367188 24.824219 28.367188 C 24.824219 28.558594 24.824219 28.753906 24.824219 28.953125 C 24.953125 28.949219 25.085938 28.941406 25.21875 28.9375 C 25.648438 28.953125 25.648438 28.953125 25.882812 29.1875 C 25.914062 29.421875 25.914062 29.421875 25.914062 29.710938 C 25.914062 29.8125 25.914062 29.917969 25.914062 30.023438 C 25.914062 30.132812 25.914062 30.238281 25.910156 30.351562 C 25.914062 30.460938 25.914062 30.566406 25.914062 30.679688 C 25.914062 30.78125 25.914062 30.886719 25.914062 30.992188 C 25.914062 31.085938 25.914062 31.183594 25.914062 31.28125 C 25.882812 31.53125 25.882812 31.53125 25.648438 31.882812 C 25.289062 31.917969 24.960938 31.929688 24.601562 31.925781 C 24.449219 31.925781 24.449219 31.925781 24.289062 31.925781 C 24.070312 31.925781 23.851562 31.925781 23.632812 31.921875 C 23.296875 31.917969 22.960938 31.917969 22.625 31.921875 C 22.410156 31.921875 22.199219 31.917969 21.984375 31.917969 C 21.832031 31.917969 21.832031 31.917969 21.679688 31.917969 C 20.96875 31.910156 20.96875 31.910156 20.707031 31.648438 C 20.675781 31.332031 20.695312 31.027344 20.707031 30.710938 C 20.628906 30.710938 20.550781 30.710938 20.46875 30.710938 C 20.46875 30.441406 20.46875 30.167969 20.46875 29.890625 C 16.78125 29.890625 13.09375 29.890625 9.292969 29.890625 C 9.292969 30.46875 9.292969 31.050781 9.292969 31.648438 C 8.980469 31.960938 8.746094 31.914062 8.320312 31.917969 C 8.21875 31.917969 8.117188 31.917969 8.015625 31.917969 C 7.910156 31.917969 7.808594 31.917969 7.699219 31.917969 C 7.480469 31.921875 7.261719 31.921875 7.042969 31.917969 C 6.707031 31.917969 6.371094 31.921875 6.035156 31.925781 C 5.824219 31.925781 5.609375 31.925781 5.398438 31.925781 C 5.296875 31.925781 5.195312 31.925781 5.089844 31.929688 C 4.808594 31.925781 4.808594 31.925781 4.351562 31.882812 C 4.066406 31.457031 4.097656 31.214844 4.117188 30.710938 C 4.039062 30.710938 3.960938 30.710938 3.882812 30.710938 C 3.882812 29.9375 3.882812 29.164062 3.882812 28.367188 C 4.582031 28.367188 5.28125 28.367188 6 28.367188 C 6 28.171875 6 27.980469 6 27.78125 C 5.894531 27.785156 5.789062 27.789062 5.679688 27.792969 C 5.539062 27.796875 5.398438 27.800781 5.257812 27.800781 C 5.121094 27.804688 4.980469 27.808594 4.839844 27.816406 C 4.46875 27.78125 4.46875 27.78125 4.246094 27.628906 C 4.039062 27.304688 4.097656 26.984375 4.117188 26.609375 C 4.039062 26.609375 3.960938 26.609375 3.882812 26.609375 C 3.882812 26.296875 3.882812 25.988281 3.882812 25.671875 C 3.808594 25.671875 3.738281 25.675781 3.664062 25.679688 C 3.566406 25.679688 3.472656 25.683594 3.375 25.683594 C 3.28125 25.6875 3.1875 25.691406 3.089844 25.691406 C 2.824219 25.671875 2.824219 25.671875 2.46875 25.4375 C 2.421875 25.117188 2.453125 24.820312 2.46875 24.5 C 2.394531 24.5 2.316406 24.5 2.234375 24.5 C 2.234375 20.667969 2.234375 16.839844 2.234375 12.894531 C 1.652344 12.894531 1.070312 12.894531 0.46875 12.894531 C 0.351562 12.777344 0.351562 12.777344 0.339844 12.558594 C 0.34375 12.320312 0.347656 12.078125 0.351562 11.839844 C 0.238281 11.839844 0.121094 11.839844 0 11.839844 C 0 8.859375 0 5.882812 0 2.8125 C 0.738281 2.8125 1.476562 2.8125 2.234375 2.8125 C 2.234375 2.117188 2.234375 1.421875 2.234375 0.703125 C 2.972656 0.703125 3.710938 0.703125 4.46875 0.703125 C 4.46875 0.972656 4.46875 1.246094 4.46875 1.523438 C 4.703125 1.523438 4.9375 1.523438 5.175781 1.523438 C 5.175781 2.296875 5.175781 3.070312 5.175781 3.867188 C 4.554688 3.867188 3.933594 3.867188 3.292969 3.867188 C 3.292969 5.917969 3.292969 7.96875 3.292969 10.082031 C 3.488281 10.082031 3.683594 10.082031 3.882812 10.082031 C 3.882812 9.382812 3.882812 8.6875 3.882812 7.96875 C 4.582031 7.96875 5.28125 7.96875 6 7.96875 C 6 7.234375 6 6.5 6 5.742188 C 6.738281 5.742188 7.476562 5.742188 8.234375 5.742188 C 8.234375 5.085938 8.234375 4.429688 8.234375 3.75 C 10.292969 3.75 12.351562 3.75 14.46875 3.75 C 14.414062 2.707031 14.414062 2.707031 14.351562 1.640625 C 14.347656 1.132812 14.34375 0.625 14.351562 0.117188 Z M 2.351562 3.046875 C 2.351562 3.125 2.351562 3.203125 2.351562 3.28125 C 2.507812 3.28125 2.664062 3.28125 2.824219 3.28125 C 2.824219 3.203125 2.824219 3.128906 2.824219 3.046875 C 2.667969 3.046875 2.511719 3.046875 2.351562 3.046875 Z M 8.234375 5.859375 C 8.234375 6.558594 8.234375 7.253906 8.234375 7.96875 C 7.535156 7.96875 6.835938 7.96875 6.117188 7.96875 C 6.117188 8.667969 6.117188 9.363281 6.117188 10.082031 C 5.378906 10.082031 4.640625 10.082031 3.882812 10.082031 C 3.882812 14.800781 3.882812 19.519531 3.882812 24.382812 C 4.621094 24.382812 5.359375 24.382812 6.117188 24.382812 C 6.117188 25.078125 6.117188 25.773438 6.117188 26.492188 C 11.589844 26.492188 17.066406 26.492188 22.707031 26.492188 C 22.707031 25.792969 22.707031 25.097656 22.707031 24.382812 C 23.480469 24.382812 24.257812 24.382812 25.058594 24.382812 C 25.058594 19.699219 25.058594 15.019531 25.058594 10.199219 C 24.359375 10.199219 23.660156 10.199219 22.941406 10.199219 C 22.941406 9.460938 22.941406 8.726562 22.941406 7.96875 C 22.203125 7.96875 21.464844 7.96875 20.707031 7.96875 C 20.707031 7.273438 20.707031 6.578125 20.707031 5.859375 C 19.308594 5.859375 17.910156 5.859375 16.46875 5.859375 C 16.46875 7.175781 16.46875 8.492188 16.46875 9.847656 C 15.113281 9.847656 13.753906 9.847656 12.351562 9.847656 C 12.351562 9.226562 12.351562 8.609375 12.351562 7.96875 C 13.050781 7.96875 13.75 7.96875 14.46875 7.96875 C 14.46875 7.273438 14.46875 6.578125 14.46875 5.859375 C 12.414062 5.859375 10.355469 5.859375 8.234375 5.859375 Z M 8.234375 5.859375 "/>
<path style=" stroke:none;fill-rule:nonzero;fill:rgb(67.450982%,81.176472%,34.901962%);fill-opacity:1;" d="M 8.234375 5.859375 C 10.292969 5.859375 12.351562 5.859375 14.46875 5.859375 C 14.46875 6.558594 14.46875 7.253906 14.46875 7.96875 C 13.074219 7.96875 11.675781 7.96875 10.234375 7.96875 C 10.234375 9.285156 10.234375 10.601562 10.234375 11.957031 C 10.933594 11.957031 11.632812 11.957031 12.351562 11.957031 C 12.351562 12.691406 12.351562 13.425781 12.351562 14.183594 C 10.992188 14.183594 9.636719 14.183594 8.234375 14.183594 C 8.234375 13.488281 8.234375 12.789062 8.234375 12.074219 C 7.535156 12.074219 6.835938 12.074219 6.117188 12.074219 C 6.117188 10.71875 6.117188 9.367188 6.117188 7.96875 C 6.816406 7.96875 7.515625 7.96875 8.234375 7.96875 C 8.234375 7.273438 8.234375 6.578125 8.234375 5.859375 Z M 8.234375 5.859375 "/>
<path style=" stroke:none;fill-rule:nonzero;fill:rgb(27.450982%,41.568628%,27.058825%);fill-opacity:1;" d="M 16.46875 5.859375 C 16.507812 5.859375 16.546875 5.859375 16.589844 5.859375 C 16.589844 6.558594 16.589844 7.253906 16.589844 7.96875 C 17.25 7.96875 17.910156 7.96875 18.589844 7.96875 C 18.589844 9.285156 18.589844 10.601562 18.589844 11.957031 C 12.949219 12.128906 12.949219 12.128906 10.234375 11.957031 C 10.234375 10.640625 10.234375 9.324219 10.234375 7.96875 C 10.933594 7.96875 11.632812 7.96875 12.351562 7.96875 C 12.351562 8.589844 12.351562 9.207031 12.351562 9.847656 C 13.710938 9.847656 15.070312 9.847656 16.46875 9.847656 C 16.46875 8.53125 16.46875 7.214844 16.46875 5.859375 Z M 16.46875 5.859375 "/>
<path style=" stroke:none;fill-rule:nonzero;fill:rgb(95.294118%,74.509805%,59.607846%);fill-opacity:1;" d="M 18.46875 20.394531 C 19.207031 20.394531 19.945312 20.394531 20.707031 20.394531 C 20.707031 20.976562 20.707031 21.554688 20.707031 22.152344 C 21.367188 22.152344 22.027344 22.152344 22.707031 22.152344 C 22.707031 22.890625 22.707031 23.625 22.707031 24.382812 C 21.308594 24.382812 19.910156 24.382812 18.46875 24.382812 C 18.46875 23.066406 18.46875 21.75 18.46875 20.394531 Z M 18.46875 20.394531 "/>
<path style=" stroke:none;fill-rule:nonzero;fill:rgb(96.078432%,74.509805%,60.392159%);fill-opacity:1;" d="M 8.117188 20.394531 C 8.816406 20.394531 9.515625 20.394531 10.234375 20.394531 C 10.234375 21.710938 10.234375 23.027344 10.234375 24.382812 C 8.875 24.382812 7.519531 24.382812 6.117188 24.382812 C 6.117188 23.644531 6.117188 22.910156 6.117188 22.152344 C 6.777344 22.152344 7.4375 22.152344 8.117188 22.152344 C 8.117188 21.574219 8.117188 20.992188 8.117188 20.394531 Z M 8.117188 20.394531 "/>
<path style=" stroke:none;fill-rule:nonzero;fill:rgb(82.745099%,86.666667%,45.882353%);fill-opacity:1;" d="M 14.46875 12.074219 C 16.527344 12.074219 18.585938 12.074219 20.707031 12.074219 C 20.707031 12.730469 20.707031 13.386719 20.707031 14.066406 C 18.648438 14.066406 16.589844 14.066406 14.46875 14.066406 C 14.46875 13.410156 14.46875 12.75 14.46875 12.074219 Z M 14.46875 12.074219 "/>
<path style=" stroke:none;fill-rule:nonzero;fill:rgb(25.490198%,39.215687%,23.137255%);fill-opacity:1;" d="M 3.882812 10.082031 C 4.621094 10.082031 5.359375 10.082031 6.117188 10.082031 C 6.117188 10.738281 6.117188 11.394531 6.117188 12.074219 C 5.417969 12.074219 4.71875 12.074219 4 12.074219 C 4 15.398438 4 18.726562 4 22.152344 C 4.699219 22.152344 5.398438 22.152344 6.117188 22.152344 C 6.117188 22.890625 6.117188 23.625 6.117188 24.382812 C 5.378906 24.382812 4.640625 24.382812 3.882812 24.382812 C 3.882812 19.660156 3.882812 14.941406 3.882812 10.082031 Z M 3.882812 10.082031 "/>
<path style=" stroke:none;fill-rule:nonzero;fill:rgb(82.352942%,86.274511%,45.490196%);fill-opacity:1;" d="M 16.589844 5.859375 C 17.945312 5.859375 19.304688 5.859375 20.707031 5.859375 C 20.707031 6.558594 20.707031 7.253906 20.707031 7.96875 C 19.347656 7.96875 17.988281 7.96875 16.589844 7.96875 C 16.589844 7.273438 16.589844 6.578125 16.589844 5.859375 Z M 16.589844 5.859375 "/>
<path style=" stroke:none;fill-rule:nonzero;fill:rgb(51.764709%,76.862746%,23.529412%);fill-opacity:1;" d="M 18.589844 7.96875 C 19.285156 7.96875 19.984375 7.96875 20.707031 7.96875 C 20.707031 9.285156 20.707031 10.601562 20.707031 11.957031 C 20.007812 11.957031 19.308594 11.957031 18.589844 11.957031 C 18.589844 10.640625 18.589844 9.324219 18.589844 7.96875 Z M 18.589844 7.96875 "/>
<path style=" stroke:none;fill-rule:nonzero;fill:rgb(82.745099%,86.666667%,45.882353%);fill-opacity:1;" d="M 6.117188 8.089844 C 6.816406 8.089844 7.515625 8.089844 8.234375 8.089844 C 8.234375 9.363281 8.234375 10.640625 8.234375 11.957031 C 7.535156 11.957031 6.835938 11.957031 6.117188 11.957031 C 6.117188 10.679688 6.117188 9.402344 6.117188 8.089844 Z M 6.117188 8.089844 "/>
<path style=" stroke:none;fill-rule:nonzero;fill:rgb(82.352942%,86.274511%,45.490196%);fill-opacity:1;" d="M 8.351562 12.074219 C 9.671875 12.074219 10.992188 12.074219 12.351562 12.074219 C 12.351562 12.730469 12.351562 13.386719 12.351562 14.066406 C 11.03125 14.066406 9.714844 14.066406 8.351562 14.066406 C 8.351562 13.410156 8.351562 12.75 8.351562 12.074219 Z M 8.351562 12.074219 "/>
<path style=" stroke:none;fill-rule:nonzero;fill:rgb(82.745099%,86.666667%,45.882353%);fill-opacity:1;" d="M 20.824219 8.089844 C 21.484375 8.089844 22.144531 8.089844 22.824219 8.089844 C 22.824219 9.363281 22.824219 10.640625 22.824219 11.957031 C 22.164062 11.957031 21.503906 11.957031 20.824219 11.957031 C 20.824219 10.679688 20.824219 9.402344 20.824219 8.089844 Z M 20.824219 8.089844 "/>
<path style=" stroke:none;fill-rule:nonzero;fill:rgb(26.666668%,41.568628%,27.058825%);fill-opacity:1;" d="M 22.707031 22.152344 C 23.480469 22.152344 24.257812 22.152344 25.058594 22.152344 C 25.058594 22.890625 25.058594 23.625 25.058594 24.382812 C 24.28125 24.382812 23.507812 24.382812 22.707031 24.382812 C 22.707031 23.644531 22.707031 22.910156 22.707031 22.152344 Z M 22.707031 22.152344 "/>
<path style=" stroke:none;fill-rule:nonzero;fill:rgb(27.843139%,41.960785%,27.058825%);fill-opacity:1;" d="M 13.648438 22.855469 C 14.382812 22.855469 15.121094 22.855469 15.882812 22.855469 C 15.882812 23.59375 15.882812 24.328125 15.882812 25.085938 C 15.144531 25.085938 14.40625 25.085938 13.648438 25.085938 C 13.648438 24.347656 13.648438 23.613281 13.648438 22.855469 Z M 13.648438 22.855469 "/>
<path style=" stroke:none;fill-rule:nonzero;fill:rgb(26.666668%,41.176471%,27.450982%);fill-opacity:1;" d="M 20.46875 24.382812 C 21.207031 24.382812 21.945312 24.382812 22.707031 24.382812 C 22.707031 25.078125 22.707031 25.773438 22.707031 26.492188 C 21.96875 26.492188 21.230469 26.492188 20.46875 26.492188 C 20.46875 25.792969 20.46875 25.097656 20.46875 24.382812 Z M 20.46875 24.382812 "/>
<path style=" stroke:none;fill-rule:nonzero;fill:rgb(27.058825%,41.960785%,27.843139%);fill-opacity:1;" d="M 6.117188 24.382812 C 6.855469 24.382812 7.59375 24.382812 8.351562 24.382812 C 8.351562 25.078125 8.351562 25.773438 8.351562 26.492188 C 7.617188 26.492188 6.878906 26.492188 6.117188 26.492188 C 6.117188 25.792969 6.117188 25.097656 6.117188 24.382812 Z M 6.117188 24.382812 "/>
<path style=" stroke:none;fill-rule:nonzero;fill:rgb(1.176471%,1.960784%,0.392157%);fill-opacity:1;" d="M 18.46875 18.167969 C 19.207031 18.167969 19.945312 18.167969 20.707031 18.167969 C 20.707031 18.863281 20.707031 19.5625 20.707031 20.277344 C 19.96875 20.277344 19.230469 20.277344 18.46875 20.277344 C 18.46875 19.582031 18.46875 18.886719 18.46875 18.167969 Z M 18.46875 18.167969 "/>
<path style=" stroke:none;fill-rule:nonzero;fill:rgb(1.960784%,2.745098%,0.784314%);fill-opacity:1;" d="M 8.117188 18.167969 C 8.855469 18.167969 9.59375 18.167969 10.351562 18.167969 C 10.351562 18.863281 10.351562 19.5625 10.351562 20.277344 C 9.617188 20.277344 8.878906 20.277344 8.117188 20.277344 C 8.117188 19.582031 8.117188 18.886719 8.117188 18.167969 Z M 8.117188 18.167969 "/>
<path style=" stroke:none;fill-rule:nonzero;fill:rgb(52.549022%,77.64706%,23.529412%);fill-opacity:1;" d="M 12.351562 5.859375 C 13.050781 5.859375 13.75 5.859375 14.46875 5.859375 C 14.46875 6.558594 14.46875 7.253906 14.46875 7.96875 C 13.773438 7.96875 13.074219 7.96875 12.351562 7.96875 C 12.351562 7.273438 12.351562 6.578125 12.351562 5.859375 Z M 12.351562 5.859375 "/>
<path style=" stroke:none;fill-rule:nonzero;fill:rgb(81.960785%,85.882354%,46.27451%);fill-opacity:1;" d="M 8.117188 20.394531 C 8.816406 20.394531 9.515625 20.394531 10.234375 20.394531 C 10.234375 21.015625 10.234375 21.632812 10.234375 22.269531 C 8.875 22.269531 7.519531 22.269531 6.117188 22.269531 C 6.117188 22.230469 6.117188 22.195312 6.117188 22.152344 C 6.777344 22.152344 7.4375 22.152344 8.117188 22.152344 C 8.117188 21.574219 8.117188 20.992188 8.117188 20.394531 Z M 8.117188 20.394531 "/>
<path style=" stroke:none;fill-rule:nonzero;fill:rgb(27.843139%,42.352942%,27.058825%);fill-opacity:1;" d="M 22.941406 10.199219 C 23.640625 10.199219 24.339844 10.199219 25.058594 10.199219 C 25.058594 10.816406 25.058594 11.4375 25.058594 12.074219 C 24.359375 12.074219 23.660156 12.074219 22.941406 12.074219 C 22.941406 11.453125 22.941406 10.835938 22.941406 10.199219 Z M 22.941406 10.199219 "/>
<path style=" stroke:none;fill-rule:nonzero;fill:rgb(28.627452%,42.745098%,27.450982%);fill-opacity:1;" d="M 4 10.199219 C 4.699219 10.199219 5.398438 10.199219 6.117188 10.199219 C 6.117188 10.816406 6.117188 11.4375 6.117188 12.074219 C 5.417969 12.074219 4.71875 12.074219 4 12.074219 C 4 11.453125 4 10.835938 4 10.199219 Z M 4 10.199219 "/>
<path style=" stroke:none;fill-rule:nonzero;fill:rgb(81.176472%,86.666667%,45.09804%);fill-opacity:1;" d="M 18.46875 20.394531 C 19.207031 20.394531 19.945312 20.394531 20.707031 20.394531 C 20.707031 20.976562 20.707031 21.554688 20.707031 22.152344 C 19.96875 22.152344 19.230469 22.152344 18.46875 22.152344 C 18.46875 21.574219 18.46875 20.992188 18.46875 20.394531 Z M 18.46875 20.394531 "/>
<path style=" stroke:none;fill-rule:nonzero;fill:rgb(50.980395%,75.294119%,22.745098%);fill-opacity:1;" d="M 14.351562 0.117188 C 15.128906 0.117188 15.90625 0.117188 16.707031 0.117188 C 16.707031 0.621094 16.707031 1.121094 16.707031 1.640625 C 15.929688 1.640625 15.152344 1.640625 14.351562 1.640625 C 14.351562 1.136719 14.351562 0.636719 14.351562 0.117188 Z M 14.351562 0.117188 "/>
<path style=" stroke:none;fill-rule:nonzero;fill:rgb(62.352943%,74.117649%,33.725491%);fill-opacity:1;" d="M 20.707031 7.96875 C 21.445312 7.96875 22.179688 7.96875 22.941406 7.96875 C 22.941406 9.324219 22.941406 10.679688 22.941406 12.074219 C 22.242188 12.074219 21.542969 12.074219 20.824219 12.074219 C 20.824219 12.769531 20.824219 13.464844 20.824219 14.183594 C 18.726562 14.183594 16.628906 14.183594 14.46875 14.183594 C 14.46875 14.144531 14.46875 14.105469 14.46875 14.066406 C 16.527344 14.066406 18.585938 14.066406 20.707031 14.066406 C 20.707031 13.410156 20.707031 12.75 20.707031 12.074219 C 18.648438 12.074219 16.589844 12.074219 14.46875 12.074219 C 14.46875 12.035156 14.46875 11.996094 14.46875 11.957031 C 16.527344 11.957031 18.585938 11.957031 20.707031 11.957031 C 20.707031 10.640625 20.707031 9.324219 20.707031 7.96875 Z M 20.824219 8.089844 C 20.824219 9.363281 20.824219 10.640625 20.824219 11.957031 C 21.484375 11.957031 22.144531 11.957031 22.824219 11.957031 C 22.824219 10.679688 22.824219 9.402344 22.824219 8.089844 C 22.164062 8.089844 21.503906 8.089844 20.824219 8.089844 Z M 20.824219 8.089844 "/>
</g>
</svg>
