<svg width="255" height="273" viewBox="0 0 255 273" fill="none" xmlns="http://www.w3.org/2000/svg">
<path d="M122 1C126.458 0.913256 130.916 0.859695 135.375 0.8125C136.646 0.787363 137.917 0.762227 139.227 0.736328C140.438 0.72666 141.65 0.716992 142.898 0.707031C144.019 0.691321 145.14 0.67561 146.294 0.659424C147.187 0.771814 148.08 0.884204 149 1C151.5 4.74952 151.26 7.66598 151.188 12C151.187 13.0577 151.187 13.0577 151.186 14.1367C151.137 20.172 150.551 25.9396 150 32C158.91 32 167.82 32 177 32C177 33.32 177 34.64 177 36C178.671 35.9381 178.671 35.9381 180.375 35.875C184 36 184 36 186 38C186.195 40.6016 186.195 40.6016 186.125 43.625C186.107 44.6279 186.089 45.6308 186.07 46.6641C186.047 47.4349 186.024 48.2058 186 49C188.97 49 191.94 49 195 49C195 50.32 195 51.64 195 53C195.928 52.9587 196.856 52.9175 197.812 52.875C201 53 201 53 204 55C204.293 58.0391 204.293 58.0391 204.188 61.625C204.147 63.4078 204.147 63.4078 204.105 65.2266C204.071 66.1418 204.036 67.057 204 68C207.3 68 210.6 68 214 68C214 68.99 214 69.98 214 71C214.928 70.9381 215.856 70.8762 216.812 70.8125C220 71 220 71 221.688 72.125C223.583 74.8335 223.293 76.9236 223.188 80.1875C223.147 81.8175 223.147 81.8175 223.105 83.4805C223.071 84.3119 223.036 85.1434 223 86C223.99 86 224.98 86 226 86C226 68.51 226 51.02 226 33C221.71 33 217.42 33 213 33C213 30.69 213 28.38 213 26C211.02 26 209.04 26 207 26C207 19.4 207 12.8 207 6C213.6 6 220.2 6 227 6C227 8.31 227 10.62 227 13C228.98 13 230.96 13 233 13C233 16.63 233 20.26 233 24C237.29 24 241.58 24 246 24C246 25.32 246 26.64 246 28C246.949 27.9381 247.897 27.8762 248.875 27.8125C249.906 27.8744 250.938 27.9363 252 28C254.405 31.6071 254.283 34.212 254.259 38.3772C254.264 39.4996 254.264 39.4996 254.269 40.6446C254.278 43.1186 254.272 45.5924 254.266 48.0664C254.267 49.7837 254.269 51.501 254.271 53.2182C254.274 56.817 254.27 60.4157 254.261 64.0144C254.249 68.6339 254.256 73.2531 254.268 77.8725C254.275 81.418 254.273 84.9635 254.268 88.509C254.266 90.2127 254.268 91.9165 254.273 93.6201C254.278 95.9976 254.27 98.3747 254.259 100.752C254.263 101.46 254.267 102.168 254.271 102.898C254.229 107.771 254.229 107.771 252 110C249.419 110.145 246.951 110.187 244.375 110.125C243.315 110.111 243.315 110.111 242.234 110.098C240.489 110.074 238.745 110.038 237 110C237.009 111.307 237.018 112.613 237.027 113.959C237.108 126.261 237.168 138.562 237.207 150.864C237.228 157.188 237.256 163.513 237.302 169.837C237.345 175.939 237.369 182.04 237.38 188.141C237.387 190.471 237.401 192.802 237.423 195.132C237.452 198.39 237.456 201.648 237.454 204.907C237.468 205.875 237.483 206.842 237.498 207.839C237.457 214.357 237.457 214.357 235.146 217.606C232.349 219.423 230.557 219.407 227.25 219.25C226.265 219.214 225.28 219.178 224.266 219.141C223.518 219.094 222.77 219.048 222 219C222.023 220.132 222.046 221.264 222.07 222.43C222.089 223.911 222.107 225.393 222.125 226.875C222.142 227.621 222.159 228.368 222.176 229.137C222.193 231.092 222.103 233.047 222 235C220 237 220 237 216.086 237.195C214.516 237.182 212.945 237.158 211.375 237.125C210.573 237.116 209.771 237.107 208.945 237.098C206.963 237.074 204.982 237.038 203 237C203 238.65 203 240.3 203 242C205.64 242 208.28 242 211 242C211 243.65 211 245.3 211 247C212.114 246.959 213.227 246.918 214.375 246.875C218 247 218 247 220 249C220.259 251.015 220.259 251.015 220.266 253.465C220.268 254.347 220.271 255.23 220.273 256.139C220.266 257.062 220.258 257.986 220.25 258.938C220.258 259.857 220.265 260.777 220.273 261.725C220.271 262.608 220.268 263.492 220.266 264.402C220.263 265.212 220.261 266.021 220.259 266.855C220 269 220 269 218 272C214.973 272.291 212.153 272.396 209.125 272.363C207.805 272.364 207.805 272.364 206.458 272.365C204.595 272.362 202.732 272.353 200.869 272.336C198.011 272.313 195.155 272.316 192.297 272.322C190.49 272.317 188.682 272.31 186.875 272.301C185.587 272.302 185.587 272.302 184.274 272.304C178.231 272.231 178.231 272.231 176 270C175.73 267.312 175.913 264.709 176 262C175.34 262 174.68 262 174 262C174 259.69 174 257.38 174 255C142.65 255 111.3 255 79 255C79 259.95 79 264.9 79 270C76.3427 272.657 74.342 272.26 70.7261 272.304C69.8677 272.303 69.0094 272.302 68.125 272.301C67.2447 272.305 66.3645 272.309 65.4575 272.314C63.5947 272.32 61.7319 272.32 59.8691 272.316C57.0113 272.313 54.1546 272.336 51.2969 272.361C49.4896 272.364 47.6823 272.364 45.875 272.363C45.0166 272.372 44.1583 272.382 43.2739 272.391C40.8672 272.372 40.8672 272.372 37 272C34.5705 268.356 34.8382 266.288 35 262C34.34 262 33.68 262 33 262C33 255.4 33 248.8 33 242C38.94 242 44.88 242 51 242C51 240.35 51 238.7 51 237C50.0964 237.035 49.1927 237.07 48.2617 237.105C47.0822 237.133 45.9027 237.16 44.6875 237.188C43.5157 237.222 42.344 237.257 41.1367 237.293C38 237 38 237 36.0938 235.719C34.3236 232.937 34.819 230.198 35 227C34.34 227 33.68 227 33 227C33 224.36 33 221.72 33 219C32.3851 219.023 31.7702 219.046 31.1367 219.07C30.3285 219.088 29.5202 219.106 28.6875 219.125C27.887 219.148 27.0865 219.171 26.2617 219.195C24 219 24 219 21 217C20.5916 214.288 20.8666 211.756 21 209C20.34 209 19.68 209 19 209C19 176.33 19 143.66 19 110C14.05 110 9.1 110 4 110C3 109 3 109 2.90234 107.152C2.9349 105.102 2.96745 103.051 3 101C2.01 101 1.02 101 0 101C0 75.59 0 50.18 0 24C6.27 24 12.54 24 19 24C19 18.06 19 12.12 19 6C25.27 6 31.54 6 38 6C38 8.31 38 10.62 38 13C39.98 13 41.96 13 44 13C44 19.6 44 26.2 44 33C38.72 33 33.44 33 28 33C28 50.49 28 67.98 28 86C29.65 86 31.3 86 33 86C33 80.06 33 74.12 33 68C38.94 68 44.88 68 51 68C51 61.73 51 55.46 51 49C57.27 49 63.54 49 70 49C70 43.39 70 37.78 70 32C87.49 32 104.98 32 123 32C122.505 23.09 122.505 23.09 122 14C121.964 9.65834 121.931 5.3378 122 1ZM20 26C20 26.66 20 27.32 20 28C21.32 28 22.64 28 24 28C24 27.34 24 26.68 24 26C22.68 26 21.36 26 20 26Z" fill="#87C43A"/>
<path d="M122 1C126.458 0.913256 130.916 0.859695 135.375 0.8125C136.646 0.787363 137.917 0.762227 139.227 0.736328C140.438 0.72666 141.65 0.716992 142.898 0.707031C144.019 0.691321 145.14 0.67561 146.294 0.659424C147.187 0.771814 148.08 0.884204 149 1C151.5 4.74952 151.26 7.66598 151.188 12C151.187 13.0577 151.187 13.0577 151.186 14.1367C151.137 20.172 150.551 25.9396 150 32C158.91 32 167.82 32 177 32C177 33.32 177 34.64 177 36C178.671 35.9381 178.671 35.9381 180.375 35.875C184 36 184 36 186 38C186.195 40.6016 186.195 40.6016 186.125 43.625C186.107 44.6279 186.089 45.6308 186.07 46.6641C186.047 47.4349 186.024 48.2058 186 49C188.97 49 191.94 49 195 49C195 50.32 195 51.64 195 53C195.928 52.9587 196.856 52.9175 197.812 52.875C201 53 201 53 204 55C204.293 58.0391 204.293 58.0391 204.188 61.625C204.147 63.4078 204.147 63.4078 204.105 65.2266C204.071 66.1418 204.036 67.057 204 68C207.3 68 210.6 68 214 68C214 68.99 214 69.98 214 71C214.928 70.9381 215.856 70.8762 216.812 70.8125C220 71 220 71 221.688 72.125C223.583 74.8335 223.293 76.9236 223.188 80.1875C223.147 81.8175 223.147 81.8175 223.105 83.4805C223.071 84.3119 223.036 85.1434 223 86C223.99 86 224.98 86 226 86C226 68.51 226 51.02 226 33C221.71 33 217.42 33 213 33C213 30.69 213 28.38 213 26C211.02 26 209.04 26 207 26C207 19.4 207 12.8 207 6C213.6 6 220.2 6 227 6C227 8.31 227 10.62 227 13C228.98 13 230.96 13 233 13C233 16.63 233 20.26 233 24C237.29 24 241.58 24 246 24C246 25.32 246 26.64 246 28C246.949 27.9381 247.897 27.8762 248.875 27.8125C249.906 27.8744 250.938 27.9363 252 28C254.405 31.6071 254.283 34.212 254.259 38.3772C254.264 39.4996 254.264 39.4996 254.269 40.6446C254.278 43.1186 254.272 45.5924 254.266 48.0664C254.267 49.7837 254.269 51.501 254.271 53.2182C254.274 56.817 254.27 60.4157 254.261 64.0144C254.249 68.6339 254.256 73.2531 254.268 77.8725C254.275 81.418 254.273 84.9635 254.268 88.509C254.266 90.2127 254.268 91.9165 254.273 93.6201C254.278 95.9976 254.27 98.3747 254.259 100.752C254.263 101.46 254.267 102.168 254.271 102.898C254.229 107.771 254.229 107.771 252 110C249.419 110.145 246.951 110.187 244.375 110.125C243.315 110.111 243.315 110.111 242.234 110.098C240.489 110.074 238.745 110.038 237 110C237.009 111.307 237.018 112.613 237.027 113.959C237.108 126.261 237.168 138.562 237.207 150.864C237.228 157.188 237.256 163.513 237.302 169.837C237.345 175.939 237.369 182.04 237.38 188.141C237.387 190.471 237.401 192.802 237.423 195.132C237.452 198.39 237.456 201.648 237.454 204.907C237.468 205.875 237.483 206.842 237.498 207.839C237.457 214.357 237.457 214.357 235.146 217.606C232.349 219.423 230.557 219.407 227.25 219.25C226.265 219.214 225.28 219.178 224.266 219.141C223.518 219.094 222.77 219.048 222 219C222.023 220.132 222.046 221.264 222.07 222.43C222.089 223.911 222.107 225.393 222.125 226.875C222.142 227.621 222.159 228.368 222.176 229.137C222.193 231.092 222.103 233.047 222 235C220 237 220 237 216.086 237.195C214.516 237.182 212.945 237.158 211.375 237.125C210.573 237.116 209.771 237.107 208.945 237.098C206.963 237.074 204.982 237.038 203 237C203 238.65 203 240.3 203 242C205.64 242 208.28 242 211 242C211 243.65 211 245.3 211 247C212.114 246.959 213.227 246.918 214.375 246.875C218 247 218 247 220 249C220.259 251.015 220.259 251.015 220.266 253.465C220.268 254.347 220.271 255.23 220.273 256.139C220.266 257.062 220.258 257.986 220.25 258.938C220.258 259.857 220.265 260.777 220.273 261.725C220.271 262.608 220.268 263.492 220.266 264.402C220.263 265.212 220.261 266.021 220.259 266.855C220 269 220 269 218 272C214.973 272.291 212.153 272.396 209.125 272.363C207.805 272.364 207.805 272.364 206.458 272.365C204.595 272.362 202.732 272.353 200.869 272.336C198.011 272.313 195.155 272.316 192.297 272.322C190.49 272.317 188.682 272.31 186.875 272.301C185.587 272.302 185.587 272.302 184.274 272.304C178.231 272.231 178.231 272.231 176 270C175.73 267.312 175.913 264.709 176 262C175.34 262 174.68 262 174 262C174 259.69 174 257.38 174 255C142.65 255 111.3 255 79 255C79 259.95 79 264.9 79 270C76.3427 272.657 74.342 272.26 70.7261 272.304C69.8677 272.303 69.0094 272.302 68.125 272.301C67.2447 272.305 66.3645 272.309 65.4575 272.314C63.5947 272.32 61.7319 272.32 59.8691 272.316C57.0113 272.313 54.1546 272.336 51.2969 272.361C49.4896 272.364 47.6823 272.364 45.875 272.363C45.0166 272.372 44.1583 272.382 43.2739 272.391C40.8672 272.372 40.8672 272.372 37 272C34.5705 268.356 34.8382 266.288 35 262C34.34 262 33.68 262 33 262C33 255.4 33 248.8 33 242C38.94 242 44.88 242 51 242C51 240.35 51 238.7 51 237C50.0964 237.035 49.1927 237.07 48.2617 237.105C47.0822 237.133 45.9027 237.16 44.6875 237.188C43.5157 237.222 42.344 237.257 41.1367 237.293C38 237 38 237 36.0938 235.719C34.3236 232.937 34.819 230.198 35 227C34.34 227 33.68 227 33 227C33 224.36 33 221.72 33 219C32.3851 219.023 31.7702 219.046 31.1367 219.07C30.3285 219.088 29.5202 219.106 28.6875 219.125C27.887 219.148 27.0865 219.171 26.2617 219.195C24 219 24 219 21 217C20.5916 214.288 20.8666 211.756 21 209C20.34 209 19.68 209 19 209C19 176.33 19 143.66 19 110C14.05 110 9.1 110 4 110C3 109 3 109 2.90234 107.152C2.9349 105.102 2.96745 103.051 3 101C2.01 101 1.02 101 0 101C0 75.59 0 50.18 0 24C6.27 24 12.54 24 19 24C19 18.06 19 12.12 19 6C25.27 6 31.54 6 38 6C38 8.31 38 10.62 38 13C39.98 13 41.96 13 44 13C44 19.6 44 26.2 44 33C38.72 33 33.44 33 28 33C28 50.49 28 67.98 28 86C29.65 86 31.3 86 33 86C33 80.06 33 74.12 33 68C38.94 68 44.88 68 51 68C51 61.73 51 55.46 51 49C57.27 49 63.54 49 70 49C70 43.39 70 37.78 70 32C87.49 32 104.98 32 123 32C122.505 23.09 122.505 23.09 122 14C121.964 9.65834 121.931 5.3378 122 1ZM20 26C20 26.66 20 27.32 20 28C21.32 28 22.64 28 24 28C24 27.34 24 26.68 24 26C22.68 26 21.36 26 20 26ZM70 50C70 55.94 70 61.88 70 68C64.06 68 58.12 68 52 68C52 73.94 52 79.88 52 86C45.73 86 39.46 86 33 86C33 126.26 33 166.52 33 208C39.27 208 45.54 208 52 208C52 213.94 52 219.88 52 226C98.53 226 145.06 226 193 226C193 220.06 193 214.12 193 208C199.6 208 206.2 208 213 208C213 168.07 213 128.14 213 87C207.06 87 201.12 87 195 87C195 80.73 195 74.46 195 68C188.73 68 182.46 68 176 68C176 62.06 176 56.12 176 50C164.12 50 152.24 50 140 50C140 61.22 140 72.44 140 84C128.45 84 116.9 84 105 84C105 78.72 105 73.44 105 68C110.94 68 116.88 68 123 68C123 62.06 123 56.12 123 50C105.51 50 88.02 50 70 50Z" fill="#293029"/>
<path d="M70 50C87.49 50 104.98 50 123 50C123 55.94 123 61.88 123 68C111.12 68 99.24 68 87 68C87 79.22 87 90.44 87 102C92.94 102 98.88 102 105 102C105 108.27 105 114.54 105 121C93.45 121 81.9 121 70 121C70 115.06 70 109.12 70 103C64.06 103 58.12 103 52 103C52 91.45 52 79.9 52 68C57.94 68 63.88 68 70 68C70 62.06 70 56.12 70 50Z" fill="#ACCF59"/>
<path d="M140 50C140.33 50 140.66 50 141 50C141 55.94 141 61.88 141 68C146.61 68 152.22 68 158 68C158 79.22 158 90.44 158 102C110.057 103.464 110.057 103.464 87 102C87 90.78 87 79.56 87 68C92.94 68 98.88 68 105 68C105 73.28 105 78.56 105 84C116.55 84 128.1 84 140 84C140 72.78 140 61.56 140 50Z" fill="#466A45"/>
<path d="M157 174C163.27 174 169.54 174 176 174C176 178.95 176 183.9 176 189C181.61 189 187.22 189 193 189C193 195.27 193 201.54 193 208C181.12 208 169.24 208 157 208C157 196.78 157 185.56 157 174Z" fill="#F3BE98"/>
<path d="M69 174C74.94 174 80.88 174 87 174C87 185.22 87 196.44 87 208C75.45 208 63.9 208 52 208C52 201.73 52 195.46 52 189C57.61 189 63.22 189 69 189C69 184.05 69 179.1 69 174Z" fill="#F5BE9A"/>
<path d="M123 103C140.49 103 157.98 103 176 103C176 108.61 176 114.22 176 120C158.51 120 141.02 120 123 120C123 114.39 123 108.78 123 103Z" fill="#D3DD75"/>
<path d="M33 86C39.27 86 45.54 86 52 86C52 91.61 52 97.22 52 103C46.06 103 40.12 103 34 103C34 131.38 34 159.76 34 189C39.94 189 45.88 189 52 189C52 195.27 52 201.54 52 208C45.73 208 39.46 208 33 208C33 167.74 33 127.48 33 86Z" fill="#41643B"/>
<path d="M141 50C152.55 50 164.1 50 176 50C176 55.94 176 61.88 176 68C164.45 68 152.9 68 141 68C141 62.06 141 56.12 141 50Z" fill="#D2DC74"/>
<path d="M158 68C163.94 68 169.88 68 176 68C176 79.22 176 90.44 176 102C170.06 102 164.12 102 158 102C158 90.78 158 79.56 158 68Z" fill="#84C43C"/>
<path d="M52 69C57.94 69 63.88 69 70 69C70 79.89 70 90.78 70 102C64.06 102 58.12 102 52 102C52 91.11 52 80.22 52 69Z" fill="#D3DD75"/>
<path d="M71 103C82.22 103 93.44 103 105 103C105 108.61 105 114.22 105 120C93.78 120 82.56 120 71 120C71 114.39 71 108.78 71 103Z" fill="#D2DC74"/>
<path d="M177 69C182.61 69 188.22 69 194 69C194 79.89 194 90.78 194 102C188.39 102 182.78 102 177 102C177 91.11 177 80.22 177 69Z" fill="#D3DD75"/>
<path d="M193 189C199.6 189 206.2 189 213 189C213 195.27 213 201.54 213 208C206.4 208 199.8 208 193 208C193 201.73 193 195.46 193 189Z" fill="#446A45"/>
<path d="M116 195C122.27 195 128.54 195 135 195C135 201.27 135 207.54 135 214C128.73 214 122.46 214 116 214C116 207.73 116 201.46 116 195Z" fill="#476B45"/>
<path d="M174 208C180.27 208 186.54 208 193 208C193 213.94 193 219.88 193 226C186.73 226 180.46 226 174 226C174 220.06 174 214.12 174 208Z" fill="#446946"/>
<path d="M52 208C58.27 208 64.54 208 71 208C71 213.94 71 219.88 71 226C64.73 226 58.46 226 52 226C52 220.06 52 214.12 52 208Z" fill="#456B47"/>
<path d="M157 155C163.27 155 169.54 155 176 155C176 160.94 176 166.88 176 173C169.73 173 163.46 173 157 173C157 167.06 157 161.12 157 155Z" fill="#030501"/>
<path d="M69 155C75.27 155 81.54 155 88 155C88 160.94 88 166.88 88 173C81.73 173 75.46 173 69 173C69 167.06 69 161.12 69 155Z" fill="#050702"/>
<path d="M105 50C110.94 50 116.88 50 123 50C123 55.94 123 61.88 123 68C117.06 68 111.12 68 105 68C105 62.06 105 56.12 105 50Z" fill="#86C63C"/>
<path d="M69 174C74.94 174 80.88 174 87 174C87 179.28 87 184.56 87 190C75.45 190 63.9 190 52 190C52 189.67 52 189.34 52 189C57.61 189 63.22 189 69 189C69 184.05 69 179.1 69 174Z" fill="#D1DB76"/>
<path d="M195 87C200.94 87 206.88 87 213 87C213 92.28 213 97.56 213 103C207.06 103 201.12 103 195 103C195 97.72 195 92.44 195 87Z" fill="#476C45"/>
<path d="M34 87C39.94 87 45.88 87 52 87C52 92.28 52 97.56 52 103C46.06 103 40.12 103 34 103C34 97.72 34 92.44 34 87Z" fill="#496D46"/>
<path d="M157 174C163.27 174 169.54 174 176 174C176 178.95 176 183.9 176 189C169.73 189 163.46 189 157 189C157 184.05 157 179.1 157 174Z" fill="#CFDD73"/>
<path d="M122 1C128.6 1 135.2 1 142 1C142 5.29 142 9.58 142 14C135.4 14 128.8 14 122 14C122 9.71 122 5.42 122 1Z" fill="#82C03A"/>
<path d="M176 68C182.27 68 188.54 68 195 68C195 79.55 195 91.1 195 103C189.06 103 183.12 103 177 103C177 108.94 177 114.88 177 121C159.18 121 141.36 121 123 121C123 120.67 123 120.34 123 120C140.49 120 157.98 120 176 120C176 114.39 176 108.78 176 103C158.51 103 141.02 103 123 103C123 102.67 123 102.34 123 102C140.49 102 157.98 102 176 102C176 90.78 176 79.56 176 68ZM177 69C177 79.89 177 90.78 177 102C182.61 102 188.22 102 194 102C194 91.11 194 80.22 194 69C188.39 69 182.78 69 177 69Z" fill="#9FBD56"/>
</svg>
