<svg width="295" height="302" viewBox="0 0 295 302" fill="none" xmlns="http://www.w3.org/2000/svg">
<path d="M137 0C140.3 0 143.6 0 147 0C147 2.97 147 5.94 147 9C150.3 9 153.6 9 157 9C157 22.2 157 35.4 157 49C153.7 49 150.4 49 147 49C147 55.6 147 62.2 147 69C150.3 69 153.6 69 157 69C157 65.7 157 62.4 157 59C160.3 59 163.6 59 167 59C167 61.97 167 64.94 167 68C170.3 68 173.6 68 177 68C177 71.63 177 75.26 177 79C173.7 79 170.4 79 167 79C167 85.27 167 91.54 167 98C163.7 98 160.4 98 157 98C157 101.3 157 104.6 157 108C153.7 108 150.4 108 147 108C147 114.6 147 121.2 147 128C143.7 128 140.4 128 137 128C137 134.27 137 140.54 137 147C140.3 147 143.6 147 147 147C147 143.7 147 140.4 147 137C153.6 137 160.2 137 167 137C167 133.7 167 130.4 167 127C176.57 127 186.14 127 196 127C196 124.03 196 121.06 196 118C202.6 118 209.2 118 216 118C216 114.7 216 111.4 216 108C222.6 108 229.2 108 236 108C236 104.7 236 101.4 236 98C245.57 98 255.14 98 265 98C265 101.3 265 104.6 265 108C271.6 108 278.2 108 285 108C285 111.3 285 114.6 285 118C288.3 118 291.6 118 295 118C295 121.3 295 124.6 295 128C291.7 128 288.4 128 285 128C285 134.27 285 140.54 285 147C281.7 147 278.4 147 275 147C275 150.3 275 153.6 275 157C271.7 157 268.4 157 265 157C265 163.6 265 170.2 265 177C262.03 177 259.06 177 256 177C256 180.3 256 183.6 256 187C252.7 187 249.4 187 246 187C246 190.3 246 193.6 246 197C239.4 197 232.8 197 226 197C226 199.97 226 202.94 226 206C219.4 206 212.8 206 206 206C206 209.3 206 212.6 206 216C215.9 216 225.8 216 236 216C236 219.3 236 222.6 236 226C242.27 226 248.54 226 255 226C255 229.3 255 232.6 255 236C258.3 236 261.6 236 265 236C265 239.3 265 242.6 265 246C261.7 246 258.4 246 255 246C255 249.3 255 252.6 255 256C248.73 256 242.46 256 236 256C236 258.97 236 261.94 236 265C226.1 265 216.2 265 206 265C206 268.3 206 271.6 206 275C193.13 275 180.26 275 167 275C167 271.7 167 268.4 167 265C160.4 265 153.8 265 147 265C147 271.6 147 278.2 147 285C143.7 285 140.4 285 137 285C137 275.43 137 265.86 137 256C134.03 256 131.06 256 128 256C128.031 258.197 128.031 258.197 128.062 260.438C128.084 261.958 128.072 263.481 128 265C127 266 127 266 124.934 266.098C122.622 266.065 120.311 266.033 118 266C118 268.97 118 271.94 118 275C111.4 275 104.8 275 98 275C98 278.3 98 281.6 98 285C88.1 285 78.2 285 68 285C68 281.7 68 278.4 68 275C61.73 275 55.46 275 49 275C49 271.7 49 268.4 49 265C42.4 265 35.8 265 29 265C29 262.03 29 259.06 29 256C25.7 256 22.4 256 19 256C19 252.37 19 248.74 19 245C22.3 245 25.6 245 29 245C29 242.03 29 239.06 29 236C35.6 236 42.2 236 49 236C49 232.7 49 229.4 49 226C55.27 226 61.54 226 68 226C68 222.7 68 219.4 68 216C61.73 216 55.46 216 49 216C49 212.7 49 209.4 49 206C45.7 206 42.4 206 39 206C39 202.7 39 199.4 39 196C35.7 196 32.4 196 29 196C29 193.03 29 190.06 29 187C25.7 187 22.4 187 19 187C19 180.4 19 173.8 19 167C15.7 167 12.4 167 9 167C9 157.1 9 147.2 9 137C6.03 137 3.06 137 0 137C0 130.73 0 124.46 0 118C2.97 118 5.94 118 9 118C9 114.7 9 111.4 9 108C12.3 108 15.6 108 19 108C19 111.3 19 114.6 19 118C25.6 118 32.2 118 39 118C39 121.3 39 124.6 39 128C42.3 128 45.6 128 49 128C49 130.97 49 133.94 49 137C52.3 137 55.6 137 59 137C59 140.3 59 143.6 59 147C65.27 147 71.54 147 78 147C78 140.73 78 134.46 78 128C74.7 128 71.4 128 68 128C68 118.1 68 108.2 68 98C71.3 98 74.6 98 78 98C78 91.4 78 84.8 78 78C81.3 78 84.6 78 88 78C88 71.73 88 65.46 88 59C91.3 59 94.6 59 98 59C98 55.7 98 52.4 98 49C101.3 49 104.6 49 108 49C108 42.4 108 35.8 108 29C111.3 29 114.6 29 118 29C118 25.7 118 22.4 118 19C120.97 19 123.94 19 127 19C127 15.7 127 12.4 127 9C130.3 9 133.6 9 137 9C137 6.03 137 3.06 137 0Z" fill="#487156"/>
<path d="M128 10C130.97 10 133.94 10 137 10C137 13.3 137 16.6 137 20C134.03 20 131.06 20 128 20C128 32.87 128 45.74 128 59C124.7 59 121.4 59 118 59C118 62.3 118 65.6 118 69C114.7 69 111.4 69 108 69C108 78.57 108 88.14 108 98C104.7 98 101.4 98 98 98C98 107.57 98 117.14 98 127C101.3 127 104.6 127 108 127C108 140.2 108 153.4 108 167C110.97 167 113.94 167 117 167C117 176.57 117 186.14 117 196C110.73 196 104.46 196 98 196C98 186.43 98 176.86 98 167C94.7 167 91.4 167 88 167C88 173.27 88 179.54 88 186C85.03 186 82.06 186 79 186C79 179.73 79 173.46 79 167C75.37 167 71.74 167 68 167C68 170.3 68 173.6 68 177C65.03 177 62.06 177 59 177C59 173.7 59 170.4 59 167C55.7 167 52.4 167 49 167C49 170.3 49 173.6 49 177C51.97 177 54.94 177 58 177C58 180.3 58 183.6 58 187C64.6 187 71.2 187 78 187C78 189.97 78 192.94 78 196C74.7 196 71.4 196 68 196C68 199.3 68 202.6 68 206C71.3 206 74.6 206 78 206C78 203.03 78 200.06 78 197C84.6 197 91.2 197 98 197C98 199.97 98 202.94 98 206C107.9 206 117.8 206 128 206C128 212.6 128 219.2 128 226C118.1 226 108.2 226 98 226C98 229.3 98 232.6 98 236C107.57 236 117.14 236 127 236C127 245.9 127 255.8 127 266C124.03 266 121.06 266 118 266C118 268.97 118 271.94 118 275C111.4 275 104.8 275 98 275C98 278.3 98 281.6 98 285C88.1 285 78.2 285 68 285C68 281.7 68 278.4 68 275C61.73 275 55.46 275 49 275C49 271.7 49 268.4 49 265C42.4 265 35.8 265 29 265C29 262.03 29 259.06 29 256C25.7 256 22.4 256 19 256C19 252.37 19 248.74 19 245C22.3 245 25.6 245 29 245C29 242.03 29 239.06 29 236C35.6 236 42.2 236 49 236C49 232.7 49 229.4 49 226C55.27 226 61.54 226 68 226C68 222.7 68 219.4 68 216C61.73 216 55.46 216 49 216C49 212.7 49 209.4 49 206C45.7 206 42.4 206 39 206C39 202.7 39 199.4 39 196C35.7 196 32.4 196 29 196C29 193.03 29 190.06 29 187C25.7 187 22.4 187 19 187C19 180.4 19 173.8 19 167C15.7 167 12.4 167 9 167C9 157.1 9 147.2 9 137C6.03 137 3.06 137 0 137C0 130.73 0 124.46 0 118C2.97 118 5.94 118 9 118C9 114.7 9 111.4 9 108C12.3 108 15.6 108 19 108C19 111.3 19 114.6 19 118C25.6 118 32.2 118 39 118C39 121.3 39 124.6 39 128C42.3 128 45.6 128 49 128C49 130.97 49 133.94 49 137C52.3 137 55.6 137 59 137C59 140.3 59 143.6 59 147C65.27 147 71.54 147 78 147C78 140.73 78 134.46 78 128C74.7 128 71.4 128 68 128C68 118.1 68 108.2 68 98C71.3 98 74.6 98 78 98C78 91.4 78 84.8 78 78C81.3 78 84.6 78 88 78C88 71.73 88 65.46 88 59C91.3 59 94.6 59 98 59C98 55.7 98 52.4 98 49C101.3 49 104.6 49 108 49C108 42.4 108 35.8 108 29C111.3 29 114.6 29 118 29C118 25.7 118 22.4 118 19C121.3 19 124.6 19 128 19C128 16.03 128 13.06 128 10Z" fill="#487156"/>
<path d="M197 177C203.27 177 209.54 177 216 177C216 180.3 216 183.6 216 187C219.3 187 222.6 187 226 187C226 189.97 226 192.94 226 196C219.4 196 212.8 196 206 196C206 202.6 206 209.2 206 216C215.9 216 225.8 216 236 216C236 219.3 236 222.6 236 226C242.27 226 248.54 226 255 226C255 229.3 255 232.6 255 236C258.3 236 261.6 236 265 236C265 239.3 265 242.6 265 246C261.7 246 258.4 246 255 246C255 249.3 255 252.6 255 256C248.73 256 242.46 256 236 256C236 258.97 236 261.94 236 265C226.1 265 216.2 265 206 265C206 268.3 206 271.6 206 275C193.13 275 180.26 275 167 275C167 271.7 167 268.4 167 265C160.4 265 153.8 265 147 265C147 271.6 147 278.2 147 285C143.7 285 140.4 285 137 285C137 275.1 137 265.2 137 255C140.3 255 143.6 255 147 255C147 252.03 147 249.06 147 246C143.7 246 140.4 246 137 246C137 242.7 137 239.4 137 236C150.2 236 163.4 236 177 236C177 232.7 177 229.4 177 226C164.13 226 151.26 226 138 226C138 219.73 138 213.46 138 207C144.27 207 150.54 207 157 207C157 203.7 157 200.4 157 197C163.6 197 170.2 197 177 197C177 193.7 177 190.4 177 187C183.6 187 190.2 187 197 187C197 183.7 197 180.4 197 177Z" fill="#487156"/>
<path d="M176 147C179.63 147 183.26 147 187 147C187 150.3 187 153.6 187 157C183.7 157 180.4 157 177 157C177 163.6 177 170.2 177 177C183.27 177 189.54 177 196 177C196 173.7 196 170.4 196 167C202.6 167 209.2 167 216 167C216 170.3 216 173.6 216 177C209.73 177 203.46 177 197 177C197 180.3 197 183.6 197 187C190.4 187 183.8 187 177 187C177 190.3 177 193.6 177 197C170.4 197 163.8 197 157 197C157 200.3 157 203.6 157 207C150.73 207 144.46 207 138 207C138 213.27 138 219.54 138 226C150.87 226 163.74 226 177 226C177 229.3 177 232.6 177 236C163.8 236 150.6 236 137 236C137 239.3 137 242.6 137 246C140.3 246 143.6 246 147 246C147 248.97 147 251.94 147 255C140.608 255.72 134.431 256.104 128 256C128 258.97 128 261.94 128 265C127.67 265 127.34 265 127 265C127 255.43 127 245.86 127 236C117.43 236 107.86 236 98 236C98 232.7 98 229.4 98 226C107.9 226 117.8 226 128 226C128 219.4 128 212.8 128 206C130.97 206 133.94 206 137 206C137 202.7 137 199.4 137 196C143.6 196 150.2 196 157 196C157 193.03 157 190.06 157 187C153.7 187 150.4 187 147 187C147 180.4 147 173.8 147 167C150.3 167 153.6 167 157 167C157 173.27 157 179.54 157 186C163.27 186 169.54 186 176 186C176 183.03 176 180.06 176 177C173.03 177 170.06 177 167 177C167 170.4 167 163.8 167 157C169.97 157 172.94 157 176 157C176 153.7 176 150.4 176 147Z" fill="#6EB765"/>
<path d="M9 108C12.3 108 15.6 108 19 108C19 111.3 19 114.6 19 118C25.6 118 32.2 118 39 118C39 121.3 39 124.6 39 128C42.3 128 45.6 128 49 128C49 130.97 49 133.94 49 137C52.3 137 55.6 137 59 137C59 140.3 59 143.6 59 147C58.67 147 58.34 147 58 147C58 144.03 58 141.06 58 138C51.73 138 45.46 138 39 138C39 147.57 39 157.14 39 167C42.3 167 45.6 167 49 167C49 173.6 49 180.2 49 187C45.7 187 42.4 187 39 187C39 189.97 39 192.94 39 196C35.7 196 32.4 196 29 196C29 193.03 29 190.06 29 187C25.7 187 22.4 187 19 187C19 180.4 19 173.8 19 167C15.7 167 12.4 167 9 167C9 157.1 9 147.2 9 137C6.03 137 3.06 137 0 137C0 130.73 0 124.46 0 118C2.97 118 5.94 118 9 118C9 114.7 9 111.4 9 108Z" fill="#2AA96E"/>
<path d="M137 236C150.2 236 163.4 236 177 236C177 239.3 177 242.6 177 246C189.87 246 202.74 246 216 246C216 249.3 216 252.6 216 256C212.7 256 209.4 256 206 256C206 262.27 206 268.54 206 275C193.13 275 180.26 275 167 275C167 271.7 167 268.4 167 265C160.4 265 153.8 265 147 265C147 271.6 147 278.2 147 285C143.7 285 140.4 285 137 285C137 275.1 137 265.2 137 255C140.3 255 143.6 255 147 255C147 252.03 147 249.06 147 246C143.7 246 140.4 246 137 246C137 242.7 137 239.4 137 236Z" fill="#487156"/>
<path d="M108 127C111.3 127 114.6 127 118 127C118 140.2 118 153.4 118 167C120.97 167 123.94 167 127 167C127 179.87 127 192.74 127 206C117.43 206 107.86 206 98 206C98 203.03 98 200.06 98 197C91.4 197 84.8 197 78 197C78 199.97 78 202.94 78 206C74.7 206 71.4 206 68 206C68 202.7 68 199.4 68 196C71.3 196 74.6 196 78 196C78 193.03 78 190.06 78 187C71.4 187 64.8 187 58 187C58 183.7 58 180.4 58 177C55.03 177 52.06 177 49 177C49 173.7 49 170.4 49 167C52.3 167 55.6 167 59 167C59 170.3 59 173.6 59 177C61.97 177 64.94 177 68 177C68 173.7 68 170.4 68 167C71.63 167 75.26 167 79 167C79 173.27 79 179.54 79 186C81.97 186 84.94 186 88 186C88 179.73 88 173.46 88 167C91.3 167 94.6 167 98 167C98 176.57 98 186.14 98 196C104.27 196 110.54 196 117 196C117 186.43 117 176.86 117 167C114.03 167 111.06 167 108 167C108 153.8 108 140.6 108 127Z" fill="#67B566"/>
<path d="M137 0C140.3 0 143.6 0 147 0C147 2.97 147 5.94 147 9C150.3 9 153.6 9 157 9C157 22.2 157 35.4 157 49C153.7 49 150.4 49 147 49C147 55.6 147 62.2 147 69C143.7 69 140.4 69 137 69C137 65.7 137 62.4 137 59C134.03 59 131.06 59 128 59C128 46.13 128 33.26 128 20C130.97 20 133.94 20 137 20C137 16.7 137 13.4 137 10C134.03 10 131.06 10 128 10C128 12.97 128 15.94 128 19C127.67 19 127.34 19 127 19C127 15.7 127 12.4 127 9C130.3 9 133.6 9 137 9C137 6.03 137 3.06 137 0Z" fill="#6CB666"/>
<path d="M9 108C12.3 108 15.6 108 19 108C19 111.3 19 114.6 19 118C25.6 118 32.2 118 39 118C39 121.3 39 124.6 39 128C32.4 128 25.8 128 19 128C19 140.87 19 153.74 19 167C15.7 167 12.4 167 9 167C9 157.1 9 147.2 9 137C6.03 137 3.06 137 0 137C0 130.73 0 124.46 0 118C2.97 118 5.94 118 9 118C9 114.7 9 111.4 9 108Z" fill="#34AA6F"/>
<path d="M236 148C238.97 148 241.94 148 245 148C245 150.97 245 153.94 245 157C248.3 157 251.6 157 255 157C255 163.6 255 170.2 255 177C251.7 177 248.4 177 245 177C245 179.97 245 182.94 245 186C238.73 186 232.46 186 226 186C226 183.03 226 180.06 226 177C222.7 177 219.4 177 216 177C216 173.7 216 170.4 216 167C219.3 167 222.6 167 226 167C226 163.7 226 160.4 226 157C229.3 157 232.6 157 236 157C236 154.03 236 151.06 236 148Z" fill="#487156"/>
<path d="M49 177C51.97 177 54.94 177 58 177C58 180.3 58 183.6 58 187C64.6 187 71.2 187 78 187C78 189.97 78 192.94 78 196C74.7 196 71.4 196 68 196C68.165 197.444 68.33 198.888 68.5 200.375C69.1053 205.671 69 210.549 69 216C62.4 216 55.8 216 49 216C49 212.7 49 209.4 49 206C45.7 206 42.4 206 39 206C39 199.73 39 193.46 39 187C42.3 187 45.6 187 49 187C49 183.7 49 180.4 49 177Z" fill="#29AB70"/>
<path d="M246 147C249.3 147 252.6 147 256 147C256 150.3 256 153.6 256 157C258.97 157 261.94 157 265 157C265 163.6 265 170.2 265 177C262.03 177 259.06 177 256 177C256 180.3 256 183.6 256 187C252.7 187 249.4 187 246 187C246 190.3 246 193.6 246 197C239.4 197 232.8 197 226 197C226 199.97 226 202.94 226 206C219.4 206 212.8 206 206 206C206 202.7 206 199.4 206 196C212.6 196 219.2 196 226 196C226 193.03 226 190.06 226 187C222.7 187 219.4 187 216 187C216 183.7 216 180.4 216 177C219.3 177 222.6 177 226 177C226 179.97 226 182.94 226 186C232.27 186 238.54 186 245 186C245 183.03 245 180.06 245 177C248.3 177 251.6 177 255 177C255 170.4 255 163.8 255 157C252.03 157 249.06 157 246 157C246 153.7 246 150.4 246 147Z" fill="#487156"/>
<path d="M157 59C160.3 59 163.6 59 167 59C167 61.97 167 64.94 167 68C170.3 68 173.6 68 177 68C177 71.63 177 75.26 177 79C173.7 79 170.4 79 167 79C167 85.27 167 91.54 167 98C163.7 98 160.4 98 157 98C157 91.4 157 84.8 157 78C153.7 78 150.4 78 147 78C147 75.03 147 72.06 147 69C150.3 69 153.6 69 157 69C157 65.7 157 62.4 157 59Z" fill="#70BA6D"/>
<path d="M19 128C28.9 128 38.8 128 49 128C49 130.97 49 133.94 49 137C52.3 137 55.6 137 59 137C59 140.3 59 143.6 59 147C58.67 147 58.34 147 58 147C58 144.03 58 141.06 58 138C51.73 138 45.46 138 39 138C39 144.27 39 150.54 39 157C35.7 157 32.4 157 29 157C29 150.73 29 144.46 29 138C25.7 138 22.4 138 19 138C19 134.7 19 131.4 19 128Z" fill="#67B468"/>
<path d="M108 69C111.3 69 114.6 69 118 69C118 75.27 118 81.54 118 88C120.97 88 123.94 88 127 88C127 84.7 127 81.4 127 78C130.63 78 134.26 78 138 78C138 81.3 138 84.6 138 88C134.7 88 131.4 88 128 88C128 91.3 128 94.6 128 98C121.4 98 114.8 98 108 98C108 88.43 108 78.86 108 69Z" fill="#6EB665"/>
<path d="M78 236C84.6 236 91.2 236 98 236C98 239.3 98 242.6 98 246C91.73 246 85.46 246 79 246C79 249.3 79 252.6 79 256C72.07 256 65.14 256 58 256C58 252.7 58 249.4 58 246C64.6 246 71.2 246 78 246C78 242.7 78 239.4 78 236Z" fill="#66B567"/>
<path d="M167 265C179.87 265 192.74 265 206 265C206 268.3 206 271.6 206 275C193.13 275 180.26 275 167 275C167 271.7 167 268.4 167 265Z" fill="#6DB665"/>
<path d="M177 236C189.87 236 202.74 236 216 236C216 239.3 216 242.6 216 246C203.13 246 190.26 246 177 246C177 242.7 177 239.4 177 236Z" fill="#6DB665"/>
<path d="M197 118C203.27 118 209.54 118 216 118C216 120.97 216 123.94 216 127C219.3 127 222.6 127 226 127C226 133.6 226 140.2 226 147C222.7 147 219.4 147 216 147C216 140.73 216 134.46 216 128C209.73 128 203.46 128 197 128C197 124.7 197 121.4 197 118Z" fill="#6DB665"/>
<path d="M147 10C150.3 10 153.6 10 157 10C157 22.87 157 35.74 157 49C153.7 49 150.4 49 147 49C147 36.13 147 23.26 147 10Z" fill="#2CAD6F"/>
<path d="M216 246C219.3 246 222.6 246 226 246C226 249.3 226 252.6 226 256C228.97 256 231.94 256 235 256C235 258.97 235 261.94 235 265C225.43 265 215.86 265 206 265C206 262.03 206 259.06 206 256C209.3 256 212.6 256 216 256C216 252.7 216 249.4 216 246Z" fill="#6BB566"/>
<path d="M138 10C140.97 10 143.94 10 147 10C147 22.54 147 35.08 147 48C144.03 48 141.06 48 138 48C138 35.46 138 22.92 138 10Z" fill="#487156"/>
<path d="M206 216C215.9 216 225.8 216 236 216C236 219.3 236 222.6 236 226C226.1 226 216.2 226 206 226C206 222.7 206 219.4 206 216Z" fill="#30AD71"/>
<path d="M69 275C78.57 275 88.14 275 98 275C98 278.3 98 281.6 98 285C88.43 285 78.86 285 69 285C69 281.7 69 278.4 69 275Z" fill="#0C6330"/>
<path d="M255 236C258.3 236 261.6 236 265 236C265 239.3 265 242.6 265 246C261.7 246 258.4 246 255 246C255 248.97 255 251.94 255 255C248.73 255 242.46 255 236 255C236 251.7 236 248.4 236 245C242.27 245 248.54 245 255 245C255 242.03 255 239.06 255 236Z" fill="#6DB766"/>
<path d="M236 98C245.57 98 255.14 98 265 98C265 101.3 265 104.6 265 108C255.43 108 245.86 108 236 108C236 104.7 236 101.4 236 98Z" fill="#6DB667"/>
<path d="M98 98C101.3 98 104.6 98 108 98C108 107.57 108 117.14 108 127C104.7 127 101.4 127 98 127C98 117.43 98 107.86 98 98Z" fill="#6BB666"/>
<path d="M68 167C71.3 167 74.6 167 78 167C78 173.27 78 179.54 78 186C71.73 186 65.46 186 59 186C59 183.03 59 180.06 59 177C61.97 177 64.94 177 68 177C68 173.7 68 170.4 68 167Z" fill="#6AB666"/>
<path d="M10 137C12.97 137 15.94 137 19 137C19 146.9 19 156.8 19 167C16.03 167 13.06 167 10 167C10 157.1 10 147.2 10 137Z" fill="#0A612E"/>
<path d="M138 256C140.97 256 143.94 256 147 256C147 265.57 147 275.14 147 285C144.03 285 141.06 285 138 285C138 275.43 138 265.86 138 256Z" fill="#A33A2C"/>
<path d="M167 128C176.57 128 186.14 128 196 128C196 130.97 196 133.94 196 137C186.43 137 176.86 137 167 137C167 134.03 167 131.06 167 128Z" fill="#27AB6F"/>
<path d="M69 99C71.97 99 74.94 99 78 99C78 108.24 78 117.48 78 127C75.03 127 72.06 127 69 127C69 117.76 69 108.52 69 99Z" fill="#085F2C"/>
<path d="M19 245C22.3 245 25.6 245 29 245C29 245.33 29 245.66 29 246C26.03 246 23.06 246 20 246C20 248.97 20 251.94 20 255C29.57 255 39.14 255 49 255C49 258.3 49 261.6 49 265C42.4 265 35.8 265 29 265C29 262.03 29 259.06 29 256C25.7 256 22.4 256 19 256C19 252.37 19 248.74 19 245Z" fill="#6BB369"/>
<path d="M68 216C68.33 216 68.66 216 69 216C69 222.6 69 229.2 69 236C62.4 236 55.8 236 49 236C49 232.7 49 229.4 49 226C55.27 226 61.54 226 68 226C68 222.7 68 219.4 68 216Z" fill="#6AB468"/>
<path d="M39 177C42.3 177 45.6 177 49 177C49 180.3 49 183.6 49 187C45.7 187 42.4 187 39 187C39 189.97 39 192.94 39 196C35.7 196 32.4 196 29 196C29 193.03 29 190.06 29 187C25.7 187 22.4 187 19 187C19 186.67 19 186.34 19 186C25.6 186 32.2 186 39 186C39 183.03 39 180.06 39 177Z" fill="#67B467"/>
<path d="M29 236C35.6 236 42.2 236 49 236C49 239.3 49 242.6 49 246C42.4 246 35.8 246 29 246C29 242.7 29 239.4 29 236Z" fill="#0C6430"/>
<path d="M49 206C55.6 206 62.2 206 69 206C69 209.3 69 212.6 69 216C62.4 216 55.8 216 49 216C49 212.7 49 209.4 49 206Z" fill="#0C6431"/>
<path d="M19 118C25.6 118 32.2 118 39 118C39 121.3 39 124.6 39 128C32.4 128 25.8 128 19 128C19 124.7 19 121.4 19 118Z" fill="#0D6430"/>
<path d="M265 108C271.6 108 278.2 108 285 108C285 111.3 285 114.6 285 118C278.4 118 271.8 118 265 118C265 114.7 265 111.4 265 108Z" fill="#2EAD6F"/>
<path d="M216 108C222.6 108 229.2 108 236 108C236 111.3 236 114.6 236 118C229.4 118 222.8 118 216 118C216 114.7 216 111.4 216 108Z" fill="#6EB766"/>
<path d="M137 49C140.3 49 143.6 49 147 49C147 55.6 147 62.2 147 69C143.7 69 140.4 69 137 69C137 62.4 137 55.8 137 49Z" fill="#2EAC6E"/>
<path d="M108 29C111.3 29 114.6 29 118 29C118 35.6 118 42.2 118 49C114.7 49 111.4 49 108 49C108 42.4 108 35.8 108 29Z" fill="#0D6431"/>
<path d="M98 265C104.27 265 110.54 265 117 265C117 268.3 117 271.6 117 275C110.73 275 104.46 275 98 275C98 271.7 98 268.4 98 265Z" fill="#0B622F"/>
<path d="M236 226C242.27 226 248.54 226 255 226C255 229.3 255 232.6 255 236C248.73 236 242.46 236 236 236C236 232.7 236 229.4 236 226Z" fill="#6CB667"/>
<path d="M275 128C278.3 128 281.6 128 285 128C285 134.27 285 140.54 285 147C281.7 147 278.4 147 275 147C275 140.73 275 134.46 275 128Z" fill="#6DB667"/>
<path d="M78 128C81.3 128 84.6 128 88 128C88 134.27 88 140.54 88 147C84.7 147 81.4 147 78 147C78 140.73 78 134.46 78 128Z" fill="#6FB769"/>
<path d="M137 108C140.3 108 143.6 108 147 108C147 114.27 147 120.54 147 127C143.7 127 140.4 127 137 127C137 120.73 137 114.46 137 108Z" fill="#6CB665"/>
<path d="M147 256C153.6 256 160.2 256 167 256C167 258.97 167 261.94 167 265C160.4 265 153.8 265 147 265C147 262.03 147 259.06 147 256Z" fill="#2AAA6E"/>
<path d="M137 0C140.3 0 143.6 0 147 0C147 2.97 147 5.94 147 9C150.3 9 153.6 9 157 9C157 9.33 157 9.66 157 10C150.73 10 144.46 10 138 10C138 22.54 138 35.08 138 48C140.97 48 143.94 48 147 48C147 48.33 147 48.66 147 49C143.7 49 140.4 49 137 49C137 36.13 137 23.26 137 10C134.03 10 131.06 10 128 10C128 12.97 128 15.94 128 19C127.67 19 127.34 19 127 19C127 15.7 127 12.4 127 9C130.3 9 133.6 9 137 9C137 6.03 137 3.06 137 0Z" fill="#82BC66"/>
<path d="M49 266C55.27 266 61.54 266 68 266C68 268.97 68 271.94 68 275C61.73 275 55.46 275 49 275C49 272.03 49 269.06 49 266Z" fill="#0A5F2C"/>
<path d="M226 187C232.27 187 238.54 187 245 187C245 189.97 245 192.94 245 196C238.73 196 232.46 196 226 196C226 193.03 226 190.06 226 187Z" fill="#6AB566"/>
<path d="M177 177C183.27 177 189.54 177 196 177C196 179.97 196 182.94 196 186C189.73 186 183.46 186 177 186C177 183.03 177 180.06 177 177Z" fill="#6AB667"/>
<path d="M20 167C22.97 167 25.94 167 29 167C29 173.27 29 179.54 29 186C26.03 186 23.06 186 20 186C20 179.73 20 173.46 20 167Z" fill="#09602D"/>
<path d="M197 167C203.27 167 209.54 167 216 167C216 169.97 216 172.94 216 176C209.73 176 203.46 176 197 176C197 173.03 197 170.06 197 167Z" fill="#6BB666"/>
<path d="M256 157C258.97 157 261.94 157 265 157C265 163.27 265 169.54 265 176C262.03 176 259.06 176 256 176C256 169.73 256 163.46 256 157Z" fill="#6BB566"/>
<path d="M167 157C169.97 157 172.94 157 176 157C176 163.27 176 169.54 176 176C173.03 176 170.06 176 167 176C167 169.73 167 163.46 167 157Z" fill="#6BB666"/>
<path d="M59 148C65.27 148 71.54 148 78 148C78 150.97 78 153.94 78 157C71.73 157 65.46 157 59 157C59 154.03 59 151.06 59 148Z" fill="#095F2D"/>
<path d="M148 138C154.27 138 160.54 138 167 138C167 140.97 167 143.94 167 147C160.73 147 154.46 147 148 147C148 144.03 148 141.06 148 138Z" fill="#6AB566"/>
<path d="M236 128C238.97 128 241.94 128 245 128C245 134.27 245 140.54 245 147C242.03 147 239.06 147 236 147C236 140.73 236 134.46 236 128Z" fill="#6AB567"/>
<path d="M128 128C130.97 128 133.94 128 137 128C137 134.27 137 140.54 137 147C134.03 147 131.06 147 128 147C128 140.73 128 134.46 128 128Z" fill="#6AB566"/>
<path d="M0 118C2.97 118 5.94 118 9 118C9 124.27 9 130.54 9 137C6.03 137 3.06 137 0 137C0 130.73 0 124.46 0 118Z" fill="#6BB566"/>
<path d="M157 79C159.97 79 162.94 79 166 79C166 85.27 166 91.54 166 98C163.03 98 160.06 98 157 98C157 91.73 157 85.46 157 79Z" fill="#29AB6F"/>
<path d="M79 79C81.97 79 84.94 79 88 79C88 85.27 88 91.54 88 98C85.03 98 82.06 98 79 98C79 91.73 79 85.46 79 79Z" fill="#09602D"/>
<path d="M89 59C91.97 59 94.94 59 98 59C98 65.27 98 71.54 98 78C95.03 78 92.06 78 89 78C89 71.73 89 65.46 89 59Z" fill="#09602D"/>
<path d="M147 285C150.3 285 153.6 285 157 285C157 290.61 157 296.22 157 302C153.7 302 150.4 302 147 302C147 296.39 147 290.78 147 285Z" fill="#A54031"/>
<path d="M88 59C88.33 59 88.66 59 89 59C89 65.27 89 71.54 89 78C91.97 78 94.94 78 98 78C98 78.33 98 78.66 98 79C95.03 79 92.06 79 89 79C89 85.27 89 91.54 89 98C88.67 98 88.34 98 88 98C88 91.73 88 85.46 88 79C85.03 79 82.06 79 79 79C79 94.84 79 110.68 79 127C78.67 127 78.34 127 78 127C78 117.76 78 108.52 78 99C75.03 99 72.06 99 69 99C69 98.67 69 98.34 69 98C71.97 98 74.94 98 78 98C78 91.4 78 84.8 78 78C81.3 78 84.6 78 88 78C88 71.73 88 65.46 88 59Z" fill="#328E58"/>
<path d="M98 246C101.3 246 104.6 246 108 246C108 249.3 108 252.6 108 256C104.7 256 101.4 256 98 256C98 252.7 98 249.4 98 246Z" fill="#67B567"/>
<path d="M177 216C180.3 216 183.6 216 187 216C187 219.3 187 222.6 187 226C183.7 226 180.4 226 177 226C177 222.7 177 219.4 177 216Z" fill="#6EB764"/>
<path d="M88 216C91.3 216 94.6 216 98 216C98 219.3 98 222.6 98 226C94.7 226 91.4 226 88 226C88 222.7 88 219.4 88 216Z" fill="#68B567"/>
<path d="M196 206C199.3 206 202.6 206 206 206C206 209.3 206 212.6 206 216C202.7 216 199.4 216 196 216C196 212.7 196 209.4 196 206Z" fill="#6EB664"/>
<path d="M39 196C42.3 196 45.6 196 49 196C49 199.3 49 202.6 49 206C45.7 206 42.4 206 39 206C39 202.7 39 199.4 39 196Z" fill="#0D6532"/>
<path d="M216 157C219.3 157 222.6 157 226 157C226 160.3 226 163.6 226 167C222.7 167 219.4 167 216 167C216 163.7 216 160.4 216 157Z" fill="#6DB665"/>
<path d="M39 157C42.3 157 45.6 157 49 157C49 160.3 49 163.6 49 167C45.7 167 42.4 167 39 167C39 163.7 39 160.4 39 157Z" fill="#67B567"/>
<path d="M265 147C268.3 147 271.6 147 275 147C275 150.3 275 153.6 275 157C271.7 157 268.4 157 265 157C265 153.7 265 150.4 265 147Z" fill="#2FAD6E"/>
<path d="M226 147C229.3 147 232.6 147 236 147C236 150.3 236 153.6 236 157C232.7 157 229.4 157 226 157C226 153.7 226 150.4 226 147Z" fill="#6EB665"/>
<path d="M9 108C12.3 108 15.6 108 19 108C19 111.3 19 114.6 19 118C15.7 118 12.4 118 9 118C9 114.7 9 111.4 9 108Z" fill="#6FB86A"/>
<path d="M147 98C150.3 98 153.6 98 157 98C157 101.3 157 104.6 157 108C153.7 108 150.4 108 147 108C147 104.7 147 101.4 147 98Z" fill="#2FAD6F"/>
<path d="M118 59C121.3 59 124.6 59 128 59C128 62.3 128 65.6 128 69C124.7 69 121.4 69 118 69C118 65.7 118 62.4 118 59Z" fill="#70B763"/>
<path d="M98 49C101.3 49 104.6 49 108 49C108 52.3 108 55.6 108 59C104.7 59 101.4 59 98 59C98 55.7 98 52.4 98 49Z" fill="#69B568"/>
<path d="M255 236C258.3 236 261.6 236 265 236C265 238.97 265 241.94 265 245C261.7 245 258.4 245 255 245C255 242.03 255 239.06 255 236Z" fill="#2CAC6D"/>
<path d="M69 216C71.97 216 74.94 216 78 216C78 219.3 78 222.6 78 226C75.03 226 72.06 226 69 226C69 222.7 69 219.4 69 216Z" fill="#09612E"/>
<path d="M216 177C219.3 177 222.6 177 226 177C226 179.97 226 182.94 226 186C222.7 186 219.4 186 216 186C216 183.03 216 180.06 216 177Z" fill="#6CB666"/>
<path d="M49 167C51.97 167 54.94 167 58 167C58 170.3 58 173.6 58 177C55.03 177 52.06 177 49 177C49 173.7 49 170.4 49 167Z" fill="#6AB666"/>
<path d="M246 147C248.97 147 251.94 147 255 147C255 150.3 255 153.6 255 157C252.03 157 249.06 157 246 157C246 153.7 246 150.4 246 147Z" fill="#6CB666"/>
<path d="M137 148C140.3 148 143.6 148 147 148C147 150.97 147 153.94 147 157C143.7 157 140.4 157 137 157C137 154.03 137 151.06 137 148Z" fill="#6CB665"/>
<path d="M39 128C42.3 128 45.6 128 49 128C49 130.97 49 133.94 49 137C45.7 137 42.4 137 39 137C39 134.03 39 131.06 39 128Z" fill="#6EB768"/>
<path d="M29 128C32.3 128 35.6 128 39 128C39 130.97 39 133.94 39 137C35.7 137 32.4 137 29 137C29 134.03 29 131.06 29 128Z" fill="#2AAC6F"/>
<path d="M118 256C120.97 256 123.94 256 127 256C127 258.97 127 261.94 127 265C124.03 265 121.06 265 118 265C118 262.03 118 259.06 118 256Z" fill="#095E2B"/>
<path d="M20 246C22.97 246 25.94 246 29 246C29 248.97 29 251.94 29 255C26.03 255 23.06 255 20 255C20 252.03 20 249.06 20 246Z" fill="#095F2C"/>
<path d="M69 197C71.97 197 74.94 197 78 197C78 199.97 78 202.94 78 206C75.03 206 72.06 206 69 206C69 203.03 69 200.06 69 197Z" fill="#6CB666"/>
<path d="M246 177C248.97 177 251.94 177 255 177C255 179.97 255 182.94 255 186C252.03 186 249.06 186 246 186C246 183.03 246 180.06 246 177Z" fill="#6AB566"/>
<path d="M177 148C179.97 148 182.94 148 186 148C186 150.97 186 153.94 186 157C183.03 157 180.06 157 177 157C177 154.03 177 151.06 177 148Z" fill="#6AB567"/>
<path d="M49 138C51.97 138 54.94 138 58 138C58 140.97 58 143.94 58 147C55.03 147 52.06 147 49 147C49 144.03 49 141.06 49 138Z" fill="#085E2B"/>
<path d="M285 118C287.97 118 290.94 118 294 118C294 120.97 294 123.94 294 127C291.03 127 288.06 127 285 127C285 124.03 285 121.06 285 118Z" fill="#6AB565"/>
<path d="M246 118C248.97 118 251.94 118 255 118C255 120.97 255 123.94 255 127C252.03 127 249.06 127 246 127C246 124.03 246 121.06 246 118Z" fill="#6AB667"/>
<path d="M167 69C169.97 69 172.94 69 176 69C176 71.97 176 74.94 176 78C173.03 78 170.06 78 167 78C167 75.03 167 72.06 167 69Z" fill="#26AA6E"/>
<path d="M157 69C159.97 69 162.94 69 166 69C166 71.97 166 74.94 166 78C163.03 78 160.06 78 157 78C157 75.03 157 72.06 157 69Z" fill="#487156"/>
<path d="M118 20C120.97 20 123.94 20 127 20C127 22.97 127 25.94 127 29C124.03 29 121.06 29 118 29C118 26.03 118 23.06 118 20Z" fill="#085E2B"/>
<path d="M128 10C130.97 10 133.94 10 137 10C137 12.97 137 15.94 137 19C134.03 19 131.06 19 128 19C128 16.03 128 13.06 128 10Z" fill="#085E2B"/>
<path d="M138 0C140.97 0 143.94 0 147 0C147 2.97 147 5.94 147 9C144.03 9 141.06 9 138 9C138 6.03 138 3.06 138 0Z" fill="#27AA6F"/>
<path d="M245 118C245.33 118 245.66 118 246 118C246 120.97 246 123.94 246 127C248.97 127 251.94 127 255 127C255 124.03 255 121.06 255 118C255.33 118 255.66 118 256 118C256 121.3 256 124.6 256 128C252.7 128 249.4 128 246 128C246 137.57 246 147.14 246 157C245.67 157 245.34 157 245 157C245 154.03 245 151.06 245 148C242.03 148 239.06 148 236 148C236 147.67 236 147.34 236 147C238.97 147 241.94 147 245 147C245 140.73 245 134.46 245 128C242.03 128 239.06 128 236 128C236 127.67 236 127.34 236 127C238.97 127 241.94 127 245 127C245 124.03 245 121.06 245 118Z" fill="#87BE55"/>
<path d="M235 246C235.33 246 235.66 246 236 246C236 248.97 236 251.94 236 255C242.27 255 248.54 255 255 255C255 255.33 255 255.66 255 256C248.73 256 242.46 256 236 256C236 258.97 236 261.94 236 265C235.67 265 235.34 265 235 265C235 262.03 235 259.06 235 256C232.03 256 229.06 256 226 256C226 255.67 226 255.34 226 255C228.97 255 231.94 255 235 255C235 252.03 235 249.06 235 246Z" fill="#9CCA77"/>
</svg>
