<svg width="162" height="24" viewBox="0 0 162 24" fill="none" xmlns="http://www.w3.org/2000/svg">
<path d="M0.414773 23V1.18182H6.18182V5.03125H6.4375C6.89205 3.75284 7.64962 2.74432 8.71023 2.00568C9.77083 1.26705 11.0398 0.897727 12.517 0.897727C14.0133 0.897727 15.2869 1.27178 16.3381 2.01989C17.3892 2.75852 18.09 3.76231 18.4403 5.03125H18.6676C19.1127 3.78125 19.9176 2.7822 21.0824 2.03409C22.2566 1.27652 23.6439 0.897727 25.2443 0.897727C27.2803 0.897727 28.9328 1.5464 30.2017 2.84375C31.4801 4.13163 32.1193 5.95928 32.1193 8.3267V23H26.0824V9.51989C26.0824 8.30776 25.7604 7.39867 25.1165 6.79261C24.4725 6.18655 23.6676 5.88352 22.7017 5.88352C21.6032 5.88352 20.7462 6.2339 20.1307 6.93466C19.5152 7.62595 19.2074 8.53977 19.2074 9.67614V23H13.3409V9.39205C13.3409 8.32197 13.0331 7.4697 12.4176 6.83523C11.8116 6.20076 11.0114 5.88352 10.017 5.88352C9.3447 5.88352 8.73864 6.05398 8.19886 6.39489C7.66856 6.72633 7.24716 7.19508 6.93466 7.80114C6.62216 8.39773 6.46591 9.09848 6.46591 9.90341V23H0.414773ZM43.1207 23.4119C41.7287 23.4119 40.4882 23.1705 39.3991 22.6875C38.3101 22.1951 37.4484 21.4706 36.8139 20.5142C36.1889 19.5483 35.8764 18.3456 35.8764 16.9062C35.8764 15.6941 36.099 14.6761 36.544 13.8523C36.9891 13.0284 37.5952 12.3655 38.3622 11.8636C39.1293 11.3617 40.0005 10.983 40.9759 10.7273C41.9607 10.4716 42.9929 10.2917 44.0724 10.1875C45.3414 10.0549 46.3641 9.93182 47.1406 9.81818C47.9171 9.69508 48.4806 9.51515 48.831 9.27841C49.1813 9.04167 49.3565 8.69129 49.3565 8.22727V8.14205C49.3565 7.24242 49.0724 6.5464 48.5043 6.05398C47.9455 5.56155 47.1501 5.31534 46.1179 5.31534C45.0289 5.31534 44.1624 5.55682 43.5185 6.03977C42.8745 6.51326 42.4484 7.10985 42.2401 7.82955L36.6435 7.375C36.9276 6.04924 37.4863 4.90341 38.3196 3.9375C39.1529 2.96212 40.2277 2.21401 41.544 1.69318C42.8698 1.16288 44.4039 0.897727 46.1463 0.897727C47.3584 0.897727 48.5185 1.03977 49.6264 1.32386C50.7438 1.60795 51.7334 2.0483 52.5952 2.64489C53.4664 3.24148 54.1529 4.00852 54.6548 4.94602C55.1567 5.87405 55.4077 6.98674 55.4077 8.28409V23H49.669V19.9744H49.4986C49.1482 20.6562 48.6795 21.2576 48.0923 21.7784C47.5052 22.2898 46.7997 22.6922 45.9759 22.9858C45.152 23.2699 44.2003 23.4119 43.1207 23.4119ZM44.8537 19.2358C45.7438 19.2358 46.5298 19.0606 47.2116 18.7102C47.8935 18.3504 48.4285 17.8674 48.8168 17.2614C49.205 16.6553 49.3991 15.9687 49.3991 15.2017V12.8864C49.2098 13.0095 48.9493 13.1231 48.6179 13.2273C48.2959 13.322 47.9313 13.4119 47.5241 13.4972C47.117 13.5729 46.7098 13.6439 46.3026 13.7102C45.8954 13.767 45.526 13.8191 45.1946 13.8665C44.4844 13.9706 43.8641 14.1364 43.3338 14.3636C42.8035 14.5909 42.3916 14.8987 42.098 15.2869C41.8045 15.6657 41.6577 16.1392 41.6577 16.7074C41.6577 17.5312 41.956 18.161 42.5526 18.5966C43.1586 19.0227 43.9257 19.2358 44.8537 19.2358ZM65.1591 1.18182L69.1648 8.80966L73.2699 1.18182H79.4773L73.1562 12.0909L79.6477 23H73.4688L69.1648 15.4574L64.9318 23H58.6818L65.1591 12.0909L58.9091 1.18182H65.1591ZM92.233 23.4261C89.9886 23.4261 88.0568 22.9716 86.4375 22.0625C84.8277 21.1439 83.5871 19.8466 82.7159 18.1705C81.8447 16.4848 81.4091 14.4915 81.4091 12.1903C81.4091 9.94602 81.8447 7.97633 82.7159 6.28125C83.5871 4.58617 84.8134 3.26515 86.3949 2.31818C87.9858 1.37121 89.8513 0.897727 91.9915 0.897727C93.4309 0.897727 94.7708 1.12973 96.0114 1.59375C97.2614 2.0483 98.3504 2.73485 99.2784 3.65341C100.216 4.57197 100.945 5.72727 101.466 7.11932C101.987 8.50189 102.247 10.1212 102.247 11.9773V13.6392H83.8239V9.8892H96.5511C96.5511 9.01799 96.3617 8.24621 95.983 7.57386C95.6042 6.90151 95.0786 6.37595 94.4062 5.99716C93.7434 5.6089 92.9716 5.41477 92.0909 5.41477C91.1723 5.41477 90.358 5.62784 89.6477 6.05398C88.947 6.47064 88.3977 7.03409 88 7.74432C87.6023 8.44508 87.3987 9.22633 87.3892 10.0881V13.6534C87.3892 14.733 87.5881 15.6657 87.9858 16.4517C88.393 17.2377 88.9659 17.8438 89.7045 18.2699C90.4432 18.696 91.3191 18.9091 92.3324 18.9091C93.0047 18.9091 93.6203 18.8144 94.179 18.625C94.7377 18.4356 95.2159 18.1515 95.6136 17.7727C96.0114 17.3939 96.3144 16.9299 96.5227 16.3807L102.119 16.75C101.835 18.0947 101.253 19.2689 100.372 20.2727C99.5009 21.267 98.3741 22.0436 96.9915 22.6023C95.6184 23.1515 94.0322 23.4261 92.233 23.4261ZM112.247 10.3864V23H106.196V1.18182H111.963V5.03125H112.219C112.702 3.76231 113.511 2.75852 114.648 2.01989C115.784 1.27178 117.162 0.897727 118.781 0.897727C120.296 0.897727 121.617 1.22917 122.744 1.89205C123.871 2.55492 124.747 3.50189 125.372 4.73295C125.997 5.95454 126.31 7.41288 126.31 9.10795V23H120.259V10.1875C120.268 8.85227 119.927 7.81061 119.236 7.0625C118.545 6.30492 117.593 5.92614 116.381 5.92614C115.566 5.92614 114.847 6.10133 114.222 6.4517C113.606 6.80208 113.123 7.31345 112.773 7.9858C112.432 8.64867 112.257 9.44886 112.247 10.3864ZM141.022 23.4261C138.778 23.4261 136.846 22.9716 135.227 22.0625C133.617 21.1439 132.376 19.8466 131.505 18.1705C130.634 16.4848 130.198 14.4915 130.198 12.1903C130.198 9.94602 130.634 7.97633 131.505 6.28125C132.376 4.58617 133.603 3.26515 135.184 2.31818C136.775 1.37121 138.64 0.897727 140.781 0.897727C142.22 0.897727 143.56 1.12973 144.8 1.59375C146.05 2.0483 147.139 2.73485 148.067 3.65341C149.005 4.57197 149.734 5.72727 150.255 7.11932C150.776 8.50189 151.036 10.1212 151.036 11.9773V13.6392H132.613V9.8892H145.34C145.34 9.01799 145.151 8.24621 144.772 7.57386C144.393 6.90151 143.868 6.37595 143.195 5.99716C142.532 5.6089 141.761 5.41477 140.88 5.41477C139.961 5.41477 139.147 5.62784 138.437 6.05398C137.736 6.47064 137.187 7.03409 136.789 7.74432C136.391 8.44508 136.188 9.22633 136.178 10.0881V13.6534C136.178 14.733 136.377 15.6657 136.775 16.4517C137.182 17.2377 137.755 17.8438 138.494 18.2699C139.232 18.696 140.108 18.9091 141.121 18.9091C141.794 18.9091 142.409 18.8144 142.968 18.625C143.527 18.4356 144.005 18.1515 144.403 17.7727C144.8 17.3939 145.103 16.9299 145.312 16.3807L150.908 16.75C150.624 18.0947 150.042 19.2689 149.161 20.2727C148.29 21.267 147.163 22.0436 145.781 22.6023C144.407 23.1515 142.821 23.4261 141.022 23.4261ZM158.522 23.3693C157.585 23.3693 156.78 23.0379 156.107 22.375C155.444 21.7027 155.113 20.8977 155.113 19.9602C155.113 19.0322 155.444 18.2367 156.107 17.5739C156.78 16.911 157.585 16.5795 158.522 16.5795C159.431 16.5795 160.227 16.911 160.908 17.5739C161.59 18.2367 161.931 19.0322 161.931 19.9602C161.931 20.5852 161.77 21.1581 161.448 21.679C161.136 22.1903 160.724 22.6023 160.212 22.9148C159.701 23.2178 159.138 23.3693 158.522 23.3693Z" fill="#677954"/>
</svg>
